<svg width="19" height="18" viewBox="0 0 19 18" fill="none" xmlns="http://www.w3.org/2000/svg">
<path d="M18.3096 8.78859C18.3096 9.70686 16.836 10.38 16.5681 11.2085C16.2905 12.0672 17.0792 13.4802 16.5613 14.195C16.0383 14.917 14.4535 14.5975 13.735 15.1227C13.0234 15.6429 12.8391 17.2587 11.9843 17.5376C11.1596 17.8065 10.0689 16.6169 9.15478 16.6169C8.2407 16.6169 7.14994 17.8065 6.32521 17.5374C5.47043 17.2587 5.28613 15.6429 4.57458 15.1225C3.85602 14.5971 2.27087 14.9168 1.74822 14.1948C1.23039 13.48 2.01906 12.067 1.74141 11.2083C1.47358 10.38 0 9.70686 0 8.78859C0 7.87032 1.47358 7.19716 1.74141 6.36865C2.01906 5.50994 1.23039 4.09702 1.74822 3.3822C2.27127 2.66014 3.85602 2.97972 4.57458 2.45447C5.28613 1.93426 5.47043 0.318485 6.32521 0.0395623C7.14994 -0.229298 8.2407 0.960248 9.15478 0.960248C10.0689 0.960248 11.1596 -0.229298 11.9843 0.0397637C12.8391 0.318485 13.0234 1.93426 13.735 2.45468C14.4535 2.98012 16.0387 2.66035 16.5613 3.3824C17.0792 4.09722 16.2905 5.51014 16.5681 6.36885C16.836 7.19716 18.3096 7.87032 18.3096 8.78859Z" fill="black"/>
<path d="M9.26893 4.29176L6.63335 9.25302C6.60445 9.30749 6.59009 9.36851 6.59167 9.43016C6.59325 9.49181 6.61071 9.55201 6.64236 9.60492C6.67402 9.65784 6.71878 9.70167 6.77233 9.73217C6.82588 9.76268 6.88639 9.77882 6.94801 9.77904H8.3334C8.38036 9.77901 8.42687 9.78824 8.47027 9.80622C8.51367 9.82419 8.55311 9.85055 8.58633 9.88378C8.61955 9.91701 8.6459 9.95647 8.66388 9.9999C8.68186 10.0433 8.69111 10.0899 8.69111 10.1369L8.69111 13.1174C8.69111 13.4859 9.1804 13.614 9.36047 13.2924L12.1121 8.37862C12.1426 8.32417 12.1583 8.2627 12.1576 8.20031C12.157 8.13792 12.1401 8.07677 12.1087 8.02292C12.0772 7.96908 12.0322 7.92441 11.9781 7.89333C11.9241 7.86225 11.8628 7.84586 11.8005 7.84576L10.2986 7.84415C10.2039 7.84399 10.1131 7.80622 10.0461 7.73913C9.97919 7.67205 9.94156 7.58112 9.9415 7.48629V4.45991C9.94211 4.08695 9.44376 3.9627 9.26893 4.29176Z" fill="white"/>
</svg>
