<svg width="17" height="14" viewBox="0 0 17 14" fill="none" xmlns="http://www.w3.org/2000/svg">
<mask id="path-1-outside-1_1_129" maskUnits="userSpaceOnUse" x="-0.0328674" y="-0.750885" width="17" height="15" fill="black">
<rect fill="white" x="-0.0328674" y="-0.750885" width="17" height="15"/>
<path d="M15.8103 8.16647H14.9029C14.5105 8.16647 14.1785 8.41772 14.0513 8.76669L12.5391 8.45601C12.4628 8.40644 12.3911 8.35941 12.3226 8.31431C12.3364 7.9575 12.228 7.61143 12.0092 7.32534C11.7772 7.02165 11.441 6.80925 11.0474 6.71323C11.0268 6.38101 10.8705 6.06192 10.6053 5.82721C10.3138 5.56719 9.91505 5.43121 9.5188 5.44387C9.11437 5.03072 8.55983 4.77462 7.95517 4.71829V3.5408L8.44555 3.05041C8.47743 3.0215 9.99152 1.68867 11.9022 2.4332C11.9059 2.4347 11.9096 2.43592 11.9133 2.43716C12.1066 2.50291 12.2304 2.41186 12.2744 2.37016C12.4131 2.2384 12.4267 2.02056 12.32 1.64143C12.1364 0.99434 11.3705 0.14033 10.2373 0.260659C8.78534 0.418945 8.42111 1.56897 8.15487 2.40886C8.12008 2.51877 8.08568 2.62428 8.05029 2.72706L7.70104 3.0763L7.35175 2.72701C7.31666 2.62482 7.28251 2.51991 7.24798 2.41061C6.982 1.57024 6.61801 0.41897 5.16554 0.260684C4.03388 0.139593 3.26547 0.994366 3.08261 1.6422C2.97618 2.02059 2.98982 2.23843 3.12852 2.37016C3.17245 2.41186 3.296 2.50291 3.48953 2.43716C3.49324 2.43592 3.49698 2.43467 3.50068 2.4332C5.40485 1.691 6.88309 2.9843 6.95654 3.05036L7.44697 3.5408V4.71829C6.84261 4.77462 6.28851 5.03072 5.88408 5.44384C5.48015 5.43218 5.08886 5.5674 4.79734 5.82645C4.53135 6.06192 4.37479 6.38248 4.35495 6.71621C3.89 6.84108 3.45582 7.17082 3.28269 7.65736L2.6561 7.24793C2.1177 6.91545 1.48051 7.16159 1.1756 7.59255C0.877118 8.01459 0.806664 8.73092 1.5984 9.36734L4.6294 11.6016C5.38813 12.1259 6.1099 12.2219 7.25769 12.2219C7.25769 12.2219 11.4136 12.2204 11.537 12.2189C12.312 12.2087 12.9898 12.206 14.0101 12.5819C14.0874 13.0051 14.4573 13.3275 14.9029 13.3275H15.6119C15.6317 13.3329 15.6511 13.3407 15.6713 13.3407C15.6981 13.3407 15.7248 13.3358 15.7508 13.3275H15.8103C16.3117 13.3275 16.7196 12.9199 16.7196 12.4189V9.07582C16.7196 8.57436 16.3117 8.16647 15.8103 8.16647ZM10.2924 0.765879C10.3472 0.759934 10.4009 0.756936 10.4529 0.756936C11.2628 0.756936 11.7355 1.44298 11.831 1.77968C11.8414 1.81639 11.8496 1.84914 11.8563 1.87792C10.5316 1.45167 9.41183 1.85585 8.74787 2.22826C8.98883 1.52215 9.32154 0.871599 10.2924 0.765879ZM4.69317 1.69535C4.33488 1.69535 3.95006 1.74794 3.54662 1.87798C3.55333 1.84919 3.56151 1.81669 3.57167 1.77998C3.67315 1.42121 4.19867 0.667681 5.11048 0.76593C6.08086 0.871624 6.41384 1.5222 6.6545 2.22857C6.19328 1.96952 5.51123 1.69535 4.69317 1.69535ZM4.64728 7.17549C4.71502 7.16731 4.7763 7.13207 4.81799 7.07798C4.85943 7.02389 4.87729 6.95516 4.86787 6.88768C4.83215 6.63658 4.9294 6.38848 5.13459 6.20659C5.3507 6.01454 5.65191 5.923 5.95982 5.95846C6.04193 5.96741 6.12433 5.93588 6.17916 5.87312C6.54537 5.45454 7.10016 5.21436 7.70109 5.21436C8.30253 5.21436 8.85758 5.45454 9.22379 5.87312C9.27862 5.9359 9.36076 5.96741 9.44313 5.95846C9.75079 5.92274 10.052 6.01454 10.2679 6.20682C10.4733 6.38894 10.5706 6.63706 10.5343 6.88715C10.5247 6.95463 10.5425 7.02335 10.5842 7.0777C10.6257 7.13204 10.6872 7.16726 10.7549 7.17547C11.111 7.21914 11.4129 7.3819 11.6055 7.63399C11.6836 7.7361 11.7382 7.85051 11.7731 7.97063C11.308 7.71067 10.8383 7.57072 9.88877 7.57072H8.16089C7.37139 7.57072 6.94561 8.18977 6.94561 8.7721C6.94561 9.00483 7.00987 9.22468 7.12971 9.40802C6.08167 9.4023 5.93578 9.37105 5.65663 9.20852L3.72843 7.94858C3.81441 7.50563 4.23602 7.22597 4.64728 7.17549ZM11.531 11.7108C11.4097 11.7123 7.25771 11.7138 7.25771 11.7138C6.19255 11.7138 5.57078 11.6344 4.92468 11.1883L1.90857 8.96489C1.47685 8.61803 1.358 8.21459 1.59047 7.88608C1.75994 7.6469 2.10456 7.50373 2.38346 7.67667L5.38963 9.64052C5.86451 9.91791 6.08932 9.91791 7.90354 9.91717H9.09922C9.23965 9.91717 9.35329 9.80353 9.35329 9.6631C9.35329 9.52268 9.23965 9.40903 9.09922 9.40903H8.16084C7.92983 9.40903 7.74251 9.34056 7.61921 9.21103C7.51252 9.09914 7.4537 8.94307 7.4537 8.77213C7.4537 8.43815 7.67503 8.07889 8.16084 8.07889H9.88872C10.7319 8.07889 11.1251 8.18911 11.544 8.42491C11.6971 8.51107 12.2086 8.84756 12.3039 8.90884C12.3302 8.92571 12.3595 8.93788 12.3902 8.94408L13.9936 9.27356V12.0367C12.9875 11.6969 12.2761 11.7026 11.531 11.7108ZM16.2115 12.4189C16.2115 12.6398 16.0316 12.8194 15.8103 12.8194H15.6508C15.6506 12.8194 15.6505 12.8194 15.6504 12.8194H14.9029C14.6816 12.8194 14.5017 12.6398 14.5017 12.4189V9.07582C14.5017 8.8545 14.6816 8.67461 14.9029 8.67461H15.8103C16.0316 8.67461 16.2115 8.8545 16.2115 9.07582V12.4189Z"/>
</mask>
<path d="M15.8103 8.16647H14.9029C14.5105 8.16647 14.1785 8.41772 14.0513 8.76669L12.5391 8.45601C12.4628 8.40644 12.3911 8.35941 12.3226 8.31431C12.3364 7.9575 12.228 7.61143 12.0092 7.32534C11.7772 7.02165 11.441 6.80925 11.0474 6.71323C11.0268 6.38101 10.8705 6.06192 10.6053 5.82721C10.3138 5.56719 9.91505 5.43121 9.5188 5.44387C9.11437 5.03072 8.55983 4.77462 7.95517 4.71829V3.5408L8.44555 3.05041C8.47743 3.0215 9.99152 1.68867 11.9022 2.4332C11.9059 2.4347 11.9096 2.43592 11.9133 2.43716C12.1066 2.50291 12.2304 2.41186 12.2744 2.37016C12.4131 2.2384 12.4267 2.02056 12.32 1.64143C12.1364 0.99434 11.3705 0.14033 10.2373 0.260659C8.78534 0.418945 8.42111 1.56897 8.15487 2.40886C8.12008 2.51877 8.08568 2.62428 8.05029 2.72706L7.70104 3.0763L7.35175 2.72701C7.31666 2.62482 7.28251 2.51991 7.24798 2.41061C6.982 1.57024 6.61801 0.41897 5.16554 0.260684C4.03388 0.139593 3.26547 0.994366 3.08261 1.6422C2.97618 2.02059 2.98982 2.23843 3.12852 2.37016C3.17245 2.41186 3.296 2.50291 3.48953 2.43716C3.49324 2.43592 3.49698 2.43467 3.50068 2.4332C5.40485 1.691 6.88309 2.9843 6.95654 3.05036L7.44697 3.5408V4.71829C6.84261 4.77462 6.28851 5.03072 5.88408 5.44384C5.48015 5.43218 5.08886 5.5674 4.79734 5.82645C4.53135 6.06192 4.37479 6.38248 4.35495 6.71621C3.89 6.84108 3.45582 7.17082 3.28269 7.65736L2.6561 7.24793C2.1177 6.91545 1.48051 7.16159 1.1756 7.59255C0.877118 8.01459 0.806664 8.73092 1.5984 9.36734L4.6294 11.6016C5.38813 12.1259 6.1099 12.2219 7.25769 12.2219C7.25769 12.2219 11.4136 12.2204 11.537 12.2189C12.312 12.2087 12.9898 12.206 14.0101 12.5819C14.0874 13.0051 14.4573 13.3275 14.9029 13.3275H15.6119C15.6317 13.3329 15.6511 13.3407 15.6713 13.3407C15.6981 13.3407 15.7248 13.3358 15.7508 13.3275H15.8103C16.3117 13.3275 16.7196 12.9199 16.7196 12.4189V9.07582C16.7196 8.57436 16.3117 8.16647 15.8103 8.16647ZM10.2924 0.765879C10.3472 0.759934 10.4009 0.756936 10.4529 0.756936C11.2628 0.756936 11.7355 1.44298 11.831 1.77968C11.8414 1.81639 11.8496 1.84914 11.8563 1.87792C10.5316 1.45167 9.41183 1.85585 8.74787 2.22826C8.98883 1.52215 9.32154 0.871599 10.2924 0.765879ZM4.69317 1.69535C4.33488 1.69535 3.95006 1.74794 3.54662 1.87798C3.55333 1.84919 3.56151 1.81669 3.57167 1.77998C3.67315 1.42121 4.19867 0.667681 5.11048 0.76593C6.08086 0.871624 6.41384 1.5222 6.6545 2.22857C6.19328 1.96952 5.51123 1.69535 4.69317 1.69535ZM4.64728 7.17549C4.71502 7.16731 4.7763 7.13207 4.81799 7.07798C4.85943 7.02389 4.87729 6.95516 4.86787 6.88768C4.83215 6.63658 4.9294 6.38848 5.13459 6.20659C5.3507 6.01454 5.65191 5.923 5.95982 5.95846C6.04193 5.96741 6.12433 5.93588 6.17916 5.87312C6.54537 5.45454 7.10016 5.21436 7.70109 5.21436C8.30253 5.21436 8.85758 5.45454 9.22379 5.87312C9.27862 5.9359 9.36076 5.96741 9.44313 5.95846C9.75079 5.92274 10.052 6.01454 10.2679 6.20682C10.4733 6.38894 10.5706 6.63706 10.5343 6.88715C10.5247 6.95463 10.5425 7.02335 10.5842 7.0777C10.6257 7.13204 10.6872 7.16726 10.7549 7.17547C11.111 7.21914 11.4129 7.3819 11.6055 7.63399C11.6836 7.7361 11.7382 7.85051 11.7731 7.97063C11.308 7.71067 10.8383 7.57072 9.88877 7.57072H8.16089C7.37139 7.57072 6.94561 8.18977 6.94561 8.7721C6.94561 9.00483 7.00987 9.22468 7.12971 9.40802C6.08167 9.4023 5.93578 9.37105 5.65663 9.20852L3.72843 7.94858C3.81441 7.50563 4.23602 7.22597 4.64728 7.17549ZM11.531 11.7108C11.4097 11.7123 7.25771 11.7138 7.25771 11.7138C6.19255 11.7138 5.57078 11.6344 4.92468 11.1883L1.90857 8.96489C1.47685 8.61803 1.358 8.21459 1.59047 7.88608C1.75994 7.6469 2.10456 7.50373 2.38346 7.67667L5.38963 9.64052C5.86451 9.91791 6.08932 9.91791 7.90354 9.91717H9.09922C9.23965 9.91717 9.35329 9.80353 9.35329 9.6631C9.35329 9.52268 9.23965 9.40903 9.09922 9.40903H8.16084C7.92983 9.40903 7.74251 9.34056 7.61921 9.21103C7.51252 9.09914 7.4537 8.94307 7.4537 8.77213C7.4537 8.43815 7.67503 8.07889 8.16084 8.07889H9.88872C10.7319 8.07889 11.1251 8.18911 11.544 8.42491C11.6971 8.51107 12.2086 8.84756 12.3039 8.90884C12.3302 8.92571 12.3595 8.93788 12.3902 8.94408L13.9936 9.27356V12.0367C12.9875 11.6969 12.2761 11.7026 11.531 11.7108ZM16.2115 12.4189C16.2115 12.6398 16.0316 12.8194 15.8103 12.8194H15.6508C15.6506 12.8194 15.6505 12.8194 15.6504 12.8194H14.9029C14.6816 12.8194 14.5017 12.6398 14.5017 12.4189V9.07582C14.5017 8.8545 14.6816 8.67461 14.9029 8.67461H15.8103C16.0316 8.67461 16.2115 8.8545 16.2115 9.07582V12.4189Z" fill="#17B997"/>
<path d="M15.8103 8.16647H14.9029C14.5105 8.16647 14.1785 8.41772 14.0513 8.76669L12.5391 8.45601C12.4628 8.40644 12.3911 8.35941 12.3226 8.31431C12.3364 7.9575 12.228 7.61143 12.0092 7.32534C11.7772 7.02165 11.441 6.80925 11.0474 6.71323C11.0268 6.38101 10.8705 6.06192 10.6053 5.82721C10.3138 5.56719 9.91505 5.43121 9.5188 5.44387C9.11437 5.03072 8.55983 4.77462 7.95517 4.71829V3.5408L8.44555 3.05041C8.47743 3.0215 9.99152 1.68867 11.9022 2.4332C11.9059 2.4347 11.9096 2.43592 11.9133 2.43716C12.1066 2.50291 12.2304 2.41186 12.2744 2.37016C12.4131 2.2384 12.4267 2.02056 12.32 1.64143C12.1364 0.99434 11.3705 0.14033 10.2373 0.260659C8.78534 0.418945 8.42111 1.56897 8.15487 2.40886C8.12008 2.51877 8.08568 2.62428 8.05029 2.72706L7.70104 3.0763L7.35175 2.72701C7.31666 2.62482 7.28251 2.51991 7.24798 2.41061C6.982 1.57024 6.61801 0.41897 5.16554 0.260684C4.03388 0.139593 3.26547 0.994366 3.08261 1.6422C2.97618 2.02059 2.98982 2.23843 3.12852 2.37016C3.17245 2.41186 3.296 2.50291 3.48953 2.43716C3.49324 2.43592 3.49698 2.43467 3.50068 2.4332C5.40485 1.691 6.88309 2.9843 6.95654 3.05036L7.44697 3.5408V4.71829C6.84261 4.77462 6.28851 5.03072 5.88408 5.44384C5.48015 5.43218 5.08886 5.5674 4.79734 5.82645C4.53135 6.06192 4.37479 6.38248 4.35495 6.71621C3.89 6.84108 3.45582 7.17082 3.28269 7.65736L2.6561 7.24793C2.1177 6.91545 1.48051 7.16159 1.1756 7.59255C0.877118 8.01459 0.806664 8.73092 1.5984 9.36734L4.6294 11.6016C5.38813 12.1259 6.1099 12.2219 7.25769 12.2219C7.25769 12.2219 11.4136 12.2204 11.537 12.2189C12.312 12.2087 12.9898 12.206 14.0101 12.5819C14.0874 13.0051 14.4573 13.3275 14.9029 13.3275H15.6119C15.6317 13.3329 15.6511 13.3407 15.6713 13.3407C15.6981 13.3407 15.7248 13.3358 15.7508 13.3275H15.8103C16.3117 13.3275 16.7196 12.9199 16.7196 12.4189V9.07582C16.7196 8.57436 16.3117 8.16647 15.8103 8.16647ZM10.2924 0.765879C10.3472 0.759934 10.4009 0.756936 10.4529 0.756936C11.2628 0.756936 11.7355 1.44298 11.831 1.77968C11.8414 1.81639 11.8496 1.84914 11.8563 1.87792C10.5316 1.45167 9.41183 1.85585 8.74787 2.22826C8.98883 1.52215 9.32154 0.871599 10.2924 0.765879ZM4.69317 1.69535C4.33488 1.69535 3.95006 1.74794 3.54662 1.87798C3.55333 1.84919 3.56151 1.81669 3.57167 1.77998C3.67315 1.42121 4.19867 0.667681 5.11048 0.76593C6.08086 0.871624 6.41384 1.5222 6.6545 2.22857C6.19328 1.96952 5.51123 1.69535 4.69317 1.69535ZM4.64728 7.17549C4.71502 7.16731 4.7763 7.13207 4.81799 7.07798C4.85943 7.02389 4.87729 6.95516 4.86787 6.88768C4.83215 6.63658 4.9294 6.38848 5.13459 6.20659C5.3507 6.01454 5.65191 5.923 5.95982 5.95846C6.04193 5.96741 6.12433 5.93588 6.17916 5.87312C6.54537 5.45454 7.10016 5.21436 7.70109 5.21436C8.30253 5.21436 8.85758 5.45454 9.22379 5.87312C9.27862 5.9359 9.36076 5.96741 9.44313 5.95846C9.75079 5.92274 10.052 6.01454 10.2679 6.20682C10.4733 6.38894 10.5706 6.63706 10.5343 6.88715C10.5247 6.95463 10.5425 7.02335 10.5842 7.0777C10.6257 7.13204 10.6872 7.16726 10.7549 7.17547C11.111 7.21914 11.4129 7.3819 11.6055 7.63399C11.6836 7.7361 11.7382 7.85051 11.7731 7.97063C11.308 7.71067 10.8383 7.57072 9.88877 7.57072H8.16089C7.37139 7.57072 6.94561 8.18977 6.94561 8.7721C6.94561 9.00483 7.00987 9.22468 7.12971 9.40802C6.08167 9.4023 5.93578 9.37105 5.65663 9.20852L3.72843 7.94858C3.81441 7.50563 4.23602 7.22597 4.64728 7.17549ZM11.531 11.7108C11.4097 11.7123 7.25771 11.7138 7.25771 11.7138C6.19255 11.7138 5.57078 11.6344 4.92468 11.1883L1.90857 8.96489C1.47685 8.61803 1.358 8.21459 1.59047 7.88608C1.75994 7.6469 2.10456 7.50373 2.38346 7.67667L5.38963 9.64052C5.86451 9.91791 6.08932 9.91791 7.90354 9.91717H9.09922C9.23965 9.91717 9.35329 9.80353 9.35329 9.6631C9.35329 9.52268 9.23965 9.40903 9.09922 9.40903H8.16084C7.92983 9.40903 7.74251 9.34056 7.61921 9.21103C7.51252 9.09914 7.4537 8.94307 7.4537 8.77213C7.4537 8.43815 7.67503 8.07889 8.16084 8.07889H9.88872C10.7319 8.07889 11.1251 8.18911 11.544 8.42491C11.6971 8.51107 12.2086 8.84756 12.3039 8.90884C12.3302 8.92571 12.3595 8.93788 12.3902 8.94408L13.9936 9.27356V12.0367C12.9875 11.6969 12.2761 11.7026 11.531 11.7108ZM16.2115 12.4189C16.2115 12.6398 16.0316 12.8194 15.8103 12.8194H15.6508C15.6506 12.8194 15.6505 12.8194 15.6504 12.8194H14.9029C14.6816 12.8194 14.5017 12.6398 14.5017 12.4189V9.07582C14.5017 8.8545 14.6816 8.67461 14.9029 8.67461H15.8103C16.0316 8.67461 16.2115 8.8545 16.2115 9.07582V12.4189Z" stroke="#17B997" stroke-width="0.360057" mask="url(#path-1-outside-1_1_129)"/>
</svg>
