<svg width="39" height="40" viewBox="0 0 39 40" fill="none" xmlns="http://www.w3.org/2000/svg">
<path d="M23.3018 8.35005C23.3018 6.28485 21.6169 4.60487 19.5458 4.60487C17.4738 4.60487 15.7879 6.28485 15.7879 8.35005C15.7879 10.4165 17.4738 12.0974 19.5458 12.0974C21.6169 12.0974 23.3018 10.4165 23.3018 8.35005ZM17.0603 8.35005C17.0603 6.98659 18.1752 5.87729 19.5458 5.87729C20.9151 5.87729 22.0294 6.98665 22.0294 8.35005C22.0294 9.71472 20.9151 10.825 19.5458 10.825C18.1752 10.825 17.0603 9.71472 17.0603 8.35005Z" fill="#17B997"/>
<path d="M5.82817 14.204C4.41502 14.204 3.26532 15.3509 3.26532 16.7607C3.26532 18.1701 4.41502 19.3171 5.82817 19.3171C7.24163 19.3171 8.39133 18.1702 8.39133 16.7607C8.39133 15.351 7.24163 14.204 5.82817 14.204ZM5.82817 18.0446C5.11644 18.0446 4.53774 17.4687 4.53774 16.7607C4.53774 16.0527 5.1165 15.4764 5.82817 15.4764C6.53983 15.4764 7.11891 16.0527 7.11891 16.7607C7.11891 17.4687 6.53989 18.0446 5.82817 18.0446Z" fill="#17B997"/>
<path d="M38.7735 17.2901C38.679 17.0704 38.5517 16.8707 38.3969 16.6971C38.5476 16.5194 38.6697 16.3165 38.7588 16.0944C38.976 15.552 38.9682 14.9577 38.7377 14.4212C38.3997 13.6347 37.6517 13.1466 36.8484 13.0981C36.8291 12.8686 36.7726 12.6406 36.6794 12.4222C36.4486 11.8828 36.0205 11.466 35.4753 11.2491C34.9307 11.031 34.3349 11.0379 33.7962 11.2681C33.575 11.3625 33.3746 11.4895 33.2004 11.6446C33.0217 11.4943 32.8183 11.3718 32.5949 11.283C32.0503 11.0661 31.4533 11.0739 30.9165 11.305C30.3775 11.5355 29.9612 11.9617 29.7437 12.5054C29.6552 12.7268 29.604 12.9571 29.5903 13.1885C28.7879 13.2562 28.0516 13.7628 27.7338 14.5572C27.5167 15.0987 27.5235 15.6927 27.7537 16.2291C27.8485 16.45 27.9761 16.65 28.1312 16.8243C27.9814 17.0014 27.8594 17.2036 27.7702 17.4247C27.6419 17.7443 27.601 18.0809 27.6282 18.4142C25.0195 19.9556 23.8175 22.7109 22.9643 25.5467H20.1823V16.5201C21.1119 16.3088 21.8743 15.6544 22.2193 14.7851C23.2705 15.2393 24.5392 15.0383 25.396 14.1843C25.9393 13.6429 26.2385 12.9228 26.2385 12.1564C26.2385 11.7573 26.1571 11.3704 26.0024 11.0148C27.066 10.5945 27.8203 9.55814 27.8203 8.34972C27.8203 7.1413 27.066 6.10498 26.0027 5.68432C26.1571 5.32925 26.2385 4.94281 26.2385 4.54391C26.2385 3.77817 25.9393 3.05836 25.396 2.51726C24.5386 1.66296 23.2699 1.4623 22.2193 1.91617C21.798 0.854843 20.7586 0.102142 19.5461 0.102142C18.3339 0.102142 17.2945 0.854843 16.8733 1.91636C15.8217 1.4616 14.5518 1.66258 13.694 2.51777C13.152 3.05918 12.8538 3.77867 12.8538 4.5441C12.8538 4.94268 12.9346 5.32912 13.0886 5.68419C12.0246 6.10447 11.2701 7.14085 11.2701 8.34984C11.2701 9.55884 12.0246 10.5952 13.089 11.0152C12.9345 11.371 12.8538 11.7574 12.8538 12.1565C12.8538 12.9226 13.1521 13.6427 13.6944 14.1848C14.5524 15.0397 15.822 15.2388 16.8733 14.7856C17.2183 15.6545 17.9806 16.3088 18.91 16.5202V25.5467H16.1284C15.2771 22.711 14.076 19.9554 11.4648 18.4134C11.4919 18.0807 11.4513 17.7446 11.3236 17.4257C11.2348 17.2039 11.1129 17.0017 10.9629 16.8243C11.1177 16.6504 11.2447 16.4509 11.3391 16.231C11.5693 15.6939 11.5762 15.0996 11.359 14.5578C11.0409 13.7635 10.3056 13.2568 9.50384 13.1885C9.49016 12.9577 9.4392 12.7278 9.35103 12.5066C9.13357 11.9623 8.71634 11.5352 8.17741 11.3053C7.63873 11.0742 7.0426 11.0667 6.49832 11.2829C6.27495 11.372 6.07117 11.4948 5.89259 11.6457C5.2899 11.112 4.41512 10.93 3.62081 11.2484C3.075 11.4656 2.6469 11.8818 2.41582 12.4208C2.32198 12.6396 2.26517 12.8678 2.24557 13.0983C1.44287 13.1468 0.694812 13.6348 0.356794 14.4211C0.125976 14.9585 0.118533 15.5534 0.335671 16.0961C0.424486 16.3176 0.546321 16.5195 0.695703 16.6965C0.540658 16.8708 0.413353 17.0709 0.318875 17.2915C0.0890127 17.8289 0.0827778 18.4235 0.300553 18.9646C0.618658 19.7589 1.35399 20.2656 2.15606 20.3339C2.16942 20.5648 2.22038 20.7943 2.30856 21.0155C2.5257 21.5601 2.94324 21.9872 3.48377 22.218C4.27248 22.5541 5.15166 22.3926 5.76643 21.8747C6.16807 22.2298 6.69059 22.4296 7.2299 22.4296C7.49953 22.4296 7.77354 22.3796 8.03852 22.2739C8.58401 22.0574 9.0118 21.6415 9.24293 21.1031C9.33735 20.8838 9.39422 20.6545 9.41407 20.4234C10.0189 20.3876 10.5924 20.1012 10.9832 19.6257C12.9072 20.8397 13.9573 22.8804 14.793 25.5466H10.2373C9.06868 25.5466 8.1178 26.4953 8.1178 27.6612C8.1178 28.6332 8.78346 29.4454 9.6816 29.6906L11.6346 38.3534C11.8025 39.0675 12.4229 39.5472 13.1778 39.5472H25.9169C26.6805 39.5472 27.3012 39.0647 27.4618 38.3459L29.3843 29.6996C30.2962 29.4643 30.9749 28.6438 30.9749 27.6614C30.9749 26.4955 30.0249 25.5468 28.8576 25.5468H24.3004C25.1378 22.8806 26.1885 20.8399 28.1109 19.6264C28.5025 20.1014 29.0762 20.3875 29.6808 20.4233C29.7004 20.6547 29.7575 20.8836 29.8517 21.1033C30.0825 21.6413 30.5093 22.0569 31.0542 22.2741C31.3198 22.3797 31.5941 22.4297 31.864 22.4297C32.4036 22.4297 32.9258 22.2299 33.3269 21.8755C33.941 22.393 34.8208 22.5533 35.611 22.2181C36.15 21.988 36.5669 21.562 36.7841 21.019C36.8729 20.7969 36.9242 20.5661 36.9379 20.334C37.7399 20.266 38.4759 19.7593 38.794 18.9647C39.0114 18.4221 39.004 17.8272 38.7735 17.2901ZM17.9453 13.7341C17.9453 13.4769 17.7906 13.2451 17.553 13.1467C17.4744 13.1137 17.3915 13.0979 17.3091 13.0979C17.1442 13.0979 16.9817 13.1622 16.8599 13.2833C16.2349 13.9059 15.2172 13.9065 14.5934 13.284C14.2921 12.983 14.1262 12.5826 14.1262 12.1566C14.1262 11.7307 14.292 11.3303 14.5934 11.0292C14.7754 10.8472 14.8298 10.5735 14.7313 10.3359C14.6328 10.098 14.4008 9.94292 14.1436 9.94292C13.2607 9.94292 12.5425 9.22845 12.5425 8.34991C12.5425 7.47137 13.2607 6.75658 14.1436 6.75658C14.4011 6.75658 14.6328 6.60154 14.7313 6.3636C14.8298 6.12597 14.7754 5.85227 14.5931 5.67025C14.2921 5.36926 14.1262 4.96941 14.1262 4.54416C14.1262 4.11892 14.292 3.71906 14.5928 3.41839C15.2178 2.79586 16.2349 2.79586 16.8599 3.41839C17.0429 3.60073 17.3159 3.65449 17.553 3.55536C17.7906 3.45688 17.9453 3.22517 17.9453 2.96795C17.9453 2.08934 18.6636 1.37456 19.5461 1.37456C20.429 1.37456 21.1472 2.08934 21.1472 2.96789C21.1472 3.22511 21.3019 3.45688 21.5395 3.5553C21.7772 3.65442 22.0502 3.60066 22.2326 3.41832C22.8576 2.79643 23.8738 2.79668 24.4976 3.41864C24.7995 3.71938 24.966 4.11917 24.966 4.5441C24.966 4.96902 24.7995 5.36888 24.4976 5.66955C24.3153 5.85126 24.2605 6.12527 24.3587 6.36321C24.4572 6.60116 24.6892 6.75652 24.9468 6.75652C25.8296 6.75652 26.5479 7.4713 26.5479 8.34984C26.5479 9.22839 25.8296 9.94285 24.9468 9.94285C24.6892 9.94285 24.4572 10.0982 24.3587 10.3362C24.2605 10.5741 24.3152 10.8478 24.4976 11.0295C24.7995 11.3308 24.966 11.7309 24.966 12.1565C24.966 12.5822 24.7995 12.9823 24.4976 13.2833C23.8738 13.9058 22.8577 13.9064 22.2326 13.2833C22.0503 13.1018 21.7763 13.0481 21.5395 13.1466C21.3019 13.2451 21.1472 13.4768 21.1472 13.734C21.1472 14.6126 20.429 15.327 19.5461 15.327C18.6636 15.3271 17.9453 14.6126 17.9453 13.7341ZM8.92406 19.08C8.68701 18.9781 8.41274 19.0291 8.22881 19.2093C8.04457 19.3891 7.9868 19.6622 8.08249 19.9011C8.17321 20.1281 8.17009 20.3767 8.07377 20.601C7.97687 20.8265 7.79759 21.0008 7.56805 21.0921C7.09617 21.2804 6.55844 21.0502 6.36834 20.5798C6.27202 20.3419 6.04216 20.185 5.78526 20.1822C5.78309 20.1822 5.78061 20.1822 5.77845 20.1822C5.52435 20.1822 5.29448 20.3335 5.19384 20.5674C4.99375 21.0319 4.45017 21.2474 3.98326 21.0477C3.75619 20.9511 3.5813 20.7722 3.49026 20.5442C3.40017 20.3183 3.40392 20.071 3.5005 19.8477C3.60267 19.6113 3.55235 19.3367 3.37313 19.1521C3.19296 18.9667 2.91894 18.9079 2.68163 19.0039C2.20912 19.1919 1.67044 18.9627 1.4813 18.4905C1.39025 18.2643 1.39273 18.0164 1.48874 17.7924C1.58506 17.5669 1.7646 17.3926 1.99383 17.3013C2.23336 17.2059 2.39178 16.9757 2.39489 16.7179C2.39801 16.4603 2.24545 16.2261 2.00846 16.1248C1.78229 16.0285 1.60771 15.8505 1.51699 15.6234C1.42626 15.3967 1.42938 15.1481 1.5257 14.9236C1.72605 14.4582 2.27064 14.2426 2.7366 14.4411C2.97423 14.5418 3.24729 14.4908 3.43153 14.3106C3.61514 14.1305 3.67259 13.8577 3.57691 13.6188C3.48618 13.3933 3.4893 13.146 3.58531 12.9224C3.68195 12.6968 3.8618 12.5222 4.09294 12.4303C4.5645 12.2405 5.10101 12.471 5.29111 12.9423C5.38712 13.1805 5.61698 13.3377 5.87388 13.3405C6.11182 13.3368 6.36376 13.1914 6.46568 12.9553C6.56233 12.7304 6.74123 12.5561 6.96956 12.4651C7.19822 12.3747 7.44857 12.3781 7.67627 12.4754C7.90333 12.572 8.07822 12.7509 8.16926 12.9786C8.25935 13.2041 8.2556 13.4517 8.15902 13.6751C8.05685 13.9115 8.10717 14.1861 8.28639 14.3706C8.46593 14.5561 8.73931 14.6132 8.97789 14.5188C9.45225 14.3315 9.98908 14.5601 10.1776 15.0314C10.2686 15.2576 10.2658 15.5054 10.1695 15.7294C10.0732 15.9547 9.89429 16.1283 9.66563 16.2193C9.42642 16.3144 9.268 16.5446 9.26456 16.8018C9.26113 17.0593 9.41306 17.2935 9.64979 17.3951C9.87628 17.4923 10.0512 17.6713 10.1425 17.8987C10.2332 18.1257 10.2301 18.3745 10.1338 18.5992C9.93367 19.0648 9.39225 19.2823 8.92406 19.08ZM26.2198 38.0691C26.2027 38.1459 26.1406 38.2748 25.9169 38.2748H13.1778C12.9672 38.2748 12.8957 38.1589 12.8743 38.0679L11.0045 29.7738H28.0643L26.2198 38.0691ZM29.7025 27.6614C29.7025 28.1246 29.3235 28.5014 28.8576 28.5014H10.2372C9.76997 28.5014 9.39009 28.1246 9.39009 27.6614C9.39009 27.197 9.77003 26.8193 10.2372 26.8193H28.8576C29.3235 26.8192 29.7025 27.197 29.7025 27.6614ZM37.6129 18.492C37.4243 18.9623 36.886 19.1916 36.4132 19.0039C36.1756 18.9089 35.9019 18.967 35.7223 19.1515C35.5431 19.3357 35.4925 19.61 35.5937 19.8461C35.6904 20.071 35.6938 20.3195 35.603 20.546C35.512 20.7731 35.3374 20.9514 35.1116 21.0477C34.6446 21.2487 34.0988 21.0325 33.8988 20.5674C33.7972 20.3313 33.5735 20.1748 33.3063 20.1822C33.0494 20.1853 32.8195 20.3428 32.7235 20.5814C32.5353 21.0511 31.9976 21.2794 31.5244 21.0921C31.2964 21.001 31.1175 20.8268 31.0209 20.6015C30.9245 20.377 30.9214 20.1281 31.0121 19.901C31.1078 19.6621 31.0501 19.389 30.8658 19.2092C30.7447 19.0909 30.5844 19.0284 30.4216 19.0284C30.3368 19.0284 30.2514 19.0452 30.1706 19.08C29.7037 19.281 29.1601 19.0645 28.9591 18.5994C28.8624 18.3748 28.8596 18.1262 28.951 17.8995C29.0426 17.6715 29.2178 17.4926 29.445 17.395C29.6814 17.2934 29.8336 17.0592 29.8302 16.8016C29.8268 16.5444 29.6683 16.3142 29.4291 16.2192C29.1998 16.1278 29.02 15.9533 28.9234 15.7277C28.8274 15.504 28.8243 15.2568 28.9153 15.0306C29.1033 14.5603 29.6407 14.3317 30.1148 14.5187C30.3527 14.6144 30.6258 14.5559 30.8056 14.3711C30.9848 14.1869 31.0355 13.9126 30.9342 13.6765C30.8379 13.4523 30.8348 13.2043 30.9252 12.9779C31.0162 12.7502 31.1908 12.5715 31.4179 12.4747C31.644 12.3771 31.895 12.374 32.1246 12.4654C32.3532 12.5564 32.5324 12.7303 32.6291 12.9552C32.731 13.192 32.9698 13.3578 33.2218 13.3405C33.479 13.337 33.7088 13.1793 33.8045 12.9407C33.8953 12.7133 34.0698 12.5346 34.2957 12.4383C34.5224 12.3414 34.7728 12.3386 35.0037 12.4309C35.2332 12.5222 35.4128 12.6968 35.5091 12.9226C35.6048 13.1457 35.6072 13.3926 35.5162 13.6172C35.4199 13.8561 35.4767 14.1295 35.6607 14.31C35.844 14.4898 36.1182 14.5414 36.3559 14.4411C36.8235 14.2405 37.368 14.4573 37.5687 14.9236C37.6647 15.1476 37.6682 15.3951 37.5774 15.6216C37.4861 15.8493 37.3112 16.0283 37.0841 16.1248C36.8471 16.2261 36.6946 16.4603 36.6977 16.7179C36.7008 16.9757 36.8592 17.2059 37.0988 17.3013C37.3281 17.3923 37.5073 17.5669 37.6042 17.7924C37.7005 18.0167 37.7036 18.2652 37.6129 18.492Z" fill="#327466"/>
<path d="M33.2639 14.2041C31.8507 14.2041 30.701 15.351 30.701 16.7608C30.701 18.1702 31.8507 19.3171 33.2639 19.3171C34.6773 19.3171 35.827 18.1702 35.827 16.7608C35.8271 15.3511 34.6773 14.2041 33.2639 14.2041ZM33.2639 18.0447C32.5521 18.0447 31.9734 17.4688 31.9734 16.7608C31.9734 16.0528 32.5522 15.4765 33.2639 15.4765C33.9755 15.4765 34.5546 16.0528 34.5546 16.7608C34.5546 17.4688 33.9756 18.0447 33.2639 18.0447Z" fill="#17B997"/>
</svg>
