<svg width="45" height="37" viewBox="0 0 45 37" fill="none" xmlns="http://www.w3.org/2000/svg">
<path d="M42.451 18.9447C43.3832 18.9447 44.1418 18.1865 44.1418 17.2542V14.4211C44.1418 13.4902 43.3832 12.733 42.451 12.733H39.437V7.81744C39.4377 7.54899 39.4384 7.27103 39.2099 6.8975L35.5571 0.853919C35.304 0.435058 34.6143 0.435058 34.3612 0.853919L30.708 6.89813C30.4801 7.27641 30.4805 7.55611 30.4808 7.86376V12.7329H26.9631V7.81772C26.9638 7.54857 26.9645 7.27061 26.7356 6.89743L23.0828 0.853849C22.8297 0.434988 22.14 0.434988 21.8869 0.853849L18.2369 6.89331C18.0056 7.27054 18.0063 7.54857 18.007 7.86376V12.7329H14.4893V7.81772C14.4899 7.54857 14.4906 7.27061 14.2617 6.89743L10.6089 0.853849C10.3558 0.434988 9.66613 0.434988 9.41304 0.853849L5.76226 6.89401C5.53166 7.27096 5.53236 7.54892 5.53306 7.86376V12.7329H2.51909C1.58825 12.7329 0.830658 13.4902 0.830658 14.421V17.2542C0.830658 18.1864 1.58825 18.9446 2.51909 18.9446H5.53306V23.9427H2.51909C1.58825 23.9427 0.830658 24.7 0.830658 25.6308V28.4637C0.830658 29.3959 1.58825 30.1545 2.51909 30.1545H5.53306V34.9854C5.53306 35.596 6.0287 36.0929 6.63785 36.0929H13.384C13.9936 36.0929 14.4892 35.596 14.4892 34.9854V30.1545H18.0069V34.9854C18.0069 35.596 18.5038 36.0929 19.1144 36.0929H25.8579C26.4674 36.0929 26.963 35.596 26.963 34.9854V30.1545H30.4807V34.9854C30.4807 35.596 30.9777 36.0929 31.5882 36.0929H38.332C38.9413 36.0929 39.4368 35.596 39.4368 34.9854V30.1545H42.4508C43.383 30.1545 44.1416 29.3959 44.1416 28.4637V25.6308C44.1416 24.7 43.383 23.9427 42.4508 23.9427H39.4368V18.9446H42.451V18.9447ZM42.451 14.1301C42.6103 14.1301 42.7447 14.2635 42.7447 14.4211V17.2542C42.7447 17.4132 42.6103 17.5476 42.451 17.5476H39.437V14.1301H42.451ZM26.9631 18.9447H30.4808V23.9428H26.9631V18.9447ZM30.4808 14.1301V17.5476H26.9631V14.1301H30.4808ZM14.4892 18.9447H18.0069V23.9428H14.4892V18.9447ZM18.007 14.1301V17.5476H14.4893V14.1301H18.007ZM2.51909 17.5476C2.36115 17.5476 2.22779 17.4132 2.22779 17.2542V14.4211C2.22779 14.2607 2.35842 14.1301 2.51909 14.1301H5.53306V17.5476H2.51909ZM2.51909 28.7574C2.36115 28.7574 2.22779 28.623 2.22779 28.4637V25.6309C2.22779 25.4706 2.35842 25.34 2.51909 25.34H5.53306V28.7574H2.51909ZM13.092 34.6959H6.93013V7.81402C6.92985 7.75199 6.92538 7.70386 6.95611 7.61996L10.0109 2.56555L13.0887 7.6581C13.0969 7.70414 13.0925 7.75227 13.0921 7.86376V34.6959H13.092ZM14.4892 28.7574V25.34H18.0069V28.7574H14.4892ZM25.566 34.6959H19.4041V7.81437C19.4037 7.75227 19.3993 7.70421 19.4304 7.61996L22.4849 2.56555L25.5627 7.6581C25.5708 7.70414 25.5664 7.75227 25.5661 7.86376V34.6959H25.566ZM26.9631 28.7574V25.34H30.4808V28.7574H26.9631ZM38.0399 34.6959H31.878V7.82527C31.878 7.75877 31.8725 7.70861 31.9042 7.61996L34.9591 2.56555L38.0365 7.65782C38.0447 7.70386 38.0402 7.75199 38.0399 7.86383V34.6959ZM42.451 25.34C42.6103 25.34 42.7447 25.4733 42.7447 25.6309V28.4637C42.7447 28.623 42.6103 28.7574 42.451 28.7574H39.437V25.34H42.451Z" fill="#327466"/>
<path d="M23.3559 15.1402H21.6153C21.2296 15.1402 20.9167 15.453 20.9167 15.8388C20.9167 16.2245 21.2296 16.5373 21.6153 16.5373H23.3559C23.7417 16.5373 24.0545 16.2245 24.0545 15.8388C24.0545 15.453 23.7418 15.1402 23.3559 15.1402Z" fill="#17B997"/>
<path d="M10.7907 15.1402H9.05043C8.66469 15.1402 8.35187 15.453 8.35187 15.8388C8.35187 16.2245 8.66469 16.5373 9.05043 16.5373H10.7907C11.1765 16.5373 11.4893 16.2245 11.4893 15.8388C11.4893 15.453 11.1765 15.1402 10.7907 15.1402Z" fill="#17B997"/>
<path d="M35.7864 15.1402H34.0485C33.6628 15.1402 33.35 15.453 33.35 15.8388C33.35 16.2245 33.6628 16.5373 34.0485 16.5373H35.7864C36.1722 16.5373 36.485 16.2245 36.485 15.8388C36.485 15.453 36.1722 15.1402 35.7864 15.1402Z" fill="#17B997"/>
<path d="M23.3559 26.9475H21.6153C21.2296 26.9475 20.9167 27.2604 20.9167 27.6461C20.9167 28.0319 21.2296 28.3447 21.6153 28.3447H23.3559C23.7417 28.3447 24.0545 28.0319 24.0545 27.6461C24.0545 27.2604 23.7418 26.9475 23.3559 26.9475Z" fill="#17B997"/>
<path d="M10.7907 26.9475H9.05043C8.66469 26.9475 8.35187 27.2604 8.35187 27.6461C8.35187 28.0319 8.66469 28.3447 9.05043 28.3447H10.7907C11.1765 28.3447 11.4893 28.0319 11.4893 27.6461C11.4893 27.2604 11.1765 26.9475 10.7907 26.9475Z" fill="#17B997"/>
<path d="M35.7864 26.9475H34.0485C33.6628 26.9475 33.35 27.2604 33.35 27.6461C33.35 28.0319 33.6628 28.3447 34.0485 28.3447H35.7864C36.1722 28.3447 36.485 28.0319 36.485 27.6461C36.485 27.2604 36.1722 26.9475 35.7864 26.9475Z" fill="#17B997"/>
</svg>
