<svg width="44" height="41" viewBox="0 0 44 41" fill="none" xmlns="http://www.w3.org/2000/svg">
<path d="M43.4436 36.8414C42.9889 33.8716 40.6762 30.8863 36.4671 29.8025V26.9504L38.1954 24.6707C38.4284 24.3634 38.3684 23.9251 38.0607 23.6921C37.7534 23.4588 37.3157 23.5191 37.0821 23.8269L35.7681 25.56L34.4522 23.8266C34.2189 23.5193 33.781 23.4595 33.4736 23.6925C33.1663 23.9258 33.1062 24.3638 33.3396 24.6711L35.07 26.9506V29.5235C34.3954 29.4272 33.684 29.3715 32.9275 29.3715C30.941 29.3715 29.8021 28.9335 28.4834 28.4263C27.126 27.9045 25.6103 27.3247 22.9989 27.1656V18.6828L25.2148 16.5456C26.2626 17.3567 27.5104 17.7655 28.8214 17.7655C30.4975 17.7655 32.2722 17.1052 33.845 15.7933C37.1339 13.0506 38.9629 7.62233 35.207 2.18664C35.0542 1.96422 34.8195 1.82989 34.5637 1.81724C34.0913 1.8002 33.8188 2.12287 33.4358 2.57721C32.833 3.29248 31.8268 4.48703 29.7867 5.21354C26.4501 5.98308 24.1716 7.74172 23.3686 10.169C22.7712 11.9737 23.1081 13.9384 24.2481 15.5368L22.304 17.4118L19.7985 14.9592C20.4747 14.0793 20.9413 13.0421 21.1 11.9246C21.4523 9.4465 20.2639 7.0544 17.8401 5.36156C16.2056 4.21989 14.5721 3.917 12.9924 3.62437C11.1884 3.28975 9.4842 2.97386 7.82685 1.39908C7.62287 1.20537 7.4513 1.02591 7.3009 0.869706C6.7695 0.316092 6.04089 -0.442133 5.12025 0.326011C4.44655 0.883677 4.05913 1.93802 3.9994 3.37477C3.86702 6.56366 5.41253 11.426 9.1646 15.1004C10.8169 16.7192 12.7277 17.5675 14.6208 17.5675C15.307 17.5675 15.9913 17.4559 16.6595 17.2291C17.4714 16.9535 18.2033 16.5168 18.8375 15.9743L21.6017 18.6802V27.1226C21.5864 27.1225 21.5723 27.122 21.557 27.122C17.9775 27.122 16.1659 27.8461 14.5675 28.485C13.3775 28.9609 12.3497 29.3715 10.7316 29.3715C10.1572 29.3715 9.61497 29.4108 9.08783 29.4672V26.8581L10.8185 24.5808C11.0519 24.2738 10.9921 23.8355 10.6848 23.6018C10.3775 23.3685 9.93917 23.4289 9.70585 23.7356L8.38947 25.4676L7.07533 23.7359C6.84271 23.4286 6.40408 23.3682 6.09671 23.6018C5.78941 23.8348 5.72933 24.2731 5.96265 24.5805L7.69063 26.8575V29.6867C3.16545 30.6559 0.687911 33.7565 0.21533 36.8417C0.0741499 37.7682 0.295176 38.6512 0.821826 39.2642C1.25948 39.7735 1.87988 40.0539 2.56859 40.0539H41.0907C41.7794 40.0539 42.3998 39.7735 42.8375 39.2642C43.3641 38.6512 43.5852 37.7681 43.4436 36.8414ZM24.6949 10.6076C24.8926 10.0104 25.2103 9.46159 25.6382 8.96889C26.61 7.84958 28.2186 7.07885 30.2135 6.54445C32.5541 5.72237 33.7667 4.35053 34.4349 3.55982C37.2104 8.09058 35.7427 12.3915 32.9505 14.7202C31.1197 16.2473 28.348 17.0573 26.2344 15.5622L29.8384 12.0862L32.3934 12.2977C32.4132 12.2994 32.4327 12.3001 32.4518 12.3001C32.8116 12.3001 33.1169 12.0241 33.1472 11.6591C33.179 11.2747 32.8931 10.937 32.5087 10.9053L31.177 10.7951L31.9288 10.07C32.2065 9.80221 32.2143 9.35981 31.9465 9.08213C31.6784 8.8048 31.2367 8.79767 30.9587 9.06439L29.1324 10.8259C29.1282 10.8295 29.1248 10.8335 29.1206 10.8372L27.8147 12.0968L27.8824 10.8721C27.9036 10.487 27.6085 10.1576 27.2234 10.1361C26.8421 10.1197 26.5085 10.41 26.4873 10.7951L26.3364 13.5226L25.2615 14.5593C24.4754 13.3563 24.2601 11.9211 24.6949 10.6076ZM16.2104 15.9058C14.186 16.5935 12.0313 15.9525 10.1423 14.1021C6.69726 10.7283 5.27589 6.31245 5.39562 3.43261C5.43824 2.40488 5.67945 1.77791 5.93799 1.48053C6.03998 1.5733 6.17641 1.71553 6.29342 1.83729C6.45647 2.00683 6.64305 2.20124 6.86443 2.41172C8.8223 4.27208 10.8129 4.64113 12.7378 4.99789C14.2372 5.27585 15.6538 5.53816 17.04 6.50693C19.0457 7.90749 19.9963 9.7617 19.7169 11.7277C19.6021 12.5361 19.266 13.301 18.7853 13.9672L16.7044 11.9304L16.8722 9.92879C16.9042 9.54437 16.6187 9.20669 16.2343 9.17427C15.8492 9.14116 15.5122 9.42771 15.4798 9.81213L15.4086 10.6619L12.1469 7.46914C11.8717 7.19998 11.4299 7.2048 11.1587 7.47969C10.8889 7.75562 10.8937 8.19768 11.1693 8.46788L11.997 9.27815L10.3223 9.20431C9.94714 9.19649 9.61078 9.48604 9.59373 9.87151C9.57669 10.257 9.87546 10.5831 10.2609 10.6001L13.493 10.7426L17.8285 14.9866C17.3476 15.3819 16.8049 15.7041 16.2104 15.9058ZM41.7777 38.3534C41.6047 38.5547 41.3739 38.6567 41.0907 38.6567H2.56852C2.28539 38.6567 2.05452 38.5547 1.88155 38.3534C1.62469 38.0543 1.51795 37.5679 1.5964 37.0528C2.04048 34.1538 4.69901 30.7684 10.7316 30.7684C12.6189 30.7684 13.8172 30.2896 15.0861 29.7824C16.5675 29.1902 18.2467 28.5189 21.557 28.5189C24.8319 28.5189 26.433 29.1346 27.982 29.7302C29.3702 30.2643 30.6814 30.7684 32.9275 30.7684C38.9602 30.7684 41.6187 34.1538 42.0625 37.0525C42.1413 37.5679 42.0345 38.0543 41.7777 38.3534Z" fill="#327466"/>
<path d="M9.63714 33.501H9.22135C8.8356 33.501 8.52278 33.8138 8.52278 34.1995C8.52278 34.5853 8.8356 34.8981 9.22135 34.8981H9.63714C10.0229 34.8981 10.3357 34.5853 10.3357 34.1995C10.3357 33.8138 10.023 33.501 9.63714 33.501Z" fill="#17B997"/>
<path d="M20.1634 31.1512H19.7479C19.3622 31.1512 19.0494 31.464 19.0494 31.8498C19.0494 32.2355 19.3622 32.5483 19.7479 32.5483H20.1634C20.5491 32.5483 20.8619 32.2355 20.8619 31.8498C20.8619 31.464 20.5492 31.1512 20.1634 31.1512Z" fill="#17B997"/>
<path d="M29.5711 32.611H29.1556C28.7699 32.611 28.4571 32.9238 28.4571 33.3096C28.4571 33.6953 28.7699 34.0082 29.1556 34.0082H29.5711C29.9568 34.0082 30.2696 33.6953 30.2696 33.3096C30.2696 32.9238 29.9569 32.611 29.5711 32.611Z" fill="#17B997"/>
<path d="M24.024 34.767H23.6082C23.2225 34.767 22.9097 35.0798 22.9097 35.4656C22.9097 35.8513 23.2225 36.1642 23.6082 36.1642H24.024C24.4098 36.1642 24.7226 35.8513 24.7226 35.4656C24.7226 35.0798 24.4098 34.767 24.024 34.767Z" fill="#17B997"/>
<path d="M34.8422 34.767H34.4267C34.041 34.767 33.7281 35.0798 33.7281 35.4656C33.7281 35.8513 34.041 36.1642 34.4267 36.1642H34.8422C35.2279 36.1642 35.5407 35.8513 35.5407 35.4656C35.5407 35.0798 35.2279 34.767 34.8422 34.767Z" fill="#17B997"/>
<path d="M15.154 35.119H14.7385C14.3528 35.119 14.0399 35.4318 14.0399 35.8176C14.0399 36.2033 14.3528 36.5161 14.7385 36.5161H15.154C15.5397 36.5161 15.8525 36.2033 15.8525 35.8176C15.8525 35.4318 15.5398 35.119 15.154 35.119Z" fill="#17B997"/>
</svg>
