<svg width="37" height="45" viewBox="0 0 37 45" fill="none" xmlns="http://www.w3.org/2000/svg">
<path d="M36.6598 28.0165L36.0274 27.5103C35.6495 27.2047 35.2299 27.131 34.7709 27.2975L34.0222 27.5749C33.984 26.9128 33.9243 26.2486 33.8165 25.5831C33.5055 23.6664 32.9383 21.9835 32.1951 20.5002L33.5423 19.4987C34.2559 18.9673 34.3432 18.6282 34.2572 17.815L34.1398 16.6812C34.0996 16.2971 33.7496 16.0263 33.373 16.0576C32.9889 16.0979 32.7099 16.441 32.7495 16.8245L32.8675 17.9603C32.8736 18.019 32.8879 18.154 32.89 18.2346C32.8579 18.2625 32.8026 18.3069 32.7078 18.3779L31.5086 19.2693C30.1822 17.1354 28.441 15.5179 26.4989 14.3809C26.9667 13.3188 27.2128 12.1907 27.2128 11.0204C27.2128 8.82993 26.3605 6.83936 24.9787 5.34526L24.9799 5.19242C24.999 2.83748 24.999 2.83748 25.6949 2.5496C25.877 2.47457 26.0878 2.38725 26.332 2.27534C26.6827 2.11432 26.8369 1.69958 26.6759 1.3489C26.5142 0.99822 26.0994 0.845444 25.7494 1.00507C25.5243 1.10873 25.3292 1.18928 25.1607 1.25886C23.8243 1.81093 23.637 2.21596 23.5958 4.13681C22.2424 3.19822 20.6029 2.64439 18.8347 2.64439C17.0664 2.64439 15.427 3.19836 14.0736 4.13709C14.0327 2.21785 13.8465 1.81366 12.5114 1.26025C12.3429 1.19068 12.1478 1.1095 11.9214 1.00576C11.5707 0.842719 11.1552 0.99829 10.9949 1.3482C10.8333 1.69818 10.9867 2.11362 11.3373 2.27464C11.5823 2.38718 11.7937 2.4752 11.9765 2.55093C12.6704 2.8388 12.6704 2.8388 12.6894 5.18899L12.6907 5.34582C11.3093 6.83985 10.4573 8.83014 10.4573 11.0204C10.4573 12.1912 10.7025 13.3197 11.1693 14.3832C9.22844 15.5203 7.48831 17.1374 6.16271 19.2705L4.96495 18.3785C4.86806 18.3062 4.8121 18.2611 4.78011 18.2332C4.78213 18.1513 4.79645 18.0122 4.80197 17.9603L4.92206 16.8266C4.96299 16.4425 4.68468 16.0987 4.30124 16.0584C3.91305 16.0141 3.57333 16.2952 3.5331 16.6792L3.41301 17.8137C3.32772 18.6275 3.41504 18.9666 4.13065 19.4987L5.47686 20.5009C4.73379 21.9841 4.1667 23.6667 3.85576 25.5832C3.74763 26.2492 3.68762 26.9138 3.64927 27.5765L2.90271 27.3003C2.45248 27.1339 2.0295 27.2021 1.64473 27.509L1.01099 28.018C0.710116 28.2594 0.661706 28.6988 0.903899 28.9997C1.14469 29.3005 1.58402 29.3482 1.8856 29.1067L2.47777 28.6333L3.61986 29.0551C3.67302 31.9799 4.38241 34.7904 5.6274 37.2255L4.28364 38.2262C3.57208 38.757 3.48413 39.0953 3.56663 39.9099L3.68601 41.043C3.72353 41.4019 4.02642 41.6686 4.37983 41.6686C4.40442 41.6686 4.42894 41.6672 4.45353 41.6645C4.8376 41.6242 5.11591 41.2804 5.07497 40.897L4.95629 39.7666C4.95014 39.7079 4.93652 39.5722 4.93512 39.491C4.96649 39.4631 5.02244 39.418 5.11863 39.3464L6.31947 38.4521C7.8019 40.839 9.82823 42.7716 12.2776 43.9287C12.7354 44.145 13.1699 44.2534 13.5765 44.2534C13.8412 44.2534 14.0943 44.2077 14.3338 44.1156C14.9443 43.8816 15.4184 43.3686 15.7439 42.5909C15.7589 42.5547 15.7712 42.5172 15.7801 42.479C15.929 41.8343 16.1191 41.0968 16.3301 40.3142C17.0462 40.7567 17.8976 41.004 18.792 41.004C19.7161 41.004 20.596 40.7395 21.3278 40.2669C21.5433 41.0649 21.7373 41.8158 21.8877 42.4687C22.0863 43.3883 22.6211 43.8242 23.0345 44.0282C23.7037 44.3584 24.564 44.3208 25.3922 43.9286C27.8418 42.7714 29.8686 40.8383 31.3513 38.4506L32.5525 39.3449C32.6487 39.4172 32.7046 39.4629 32.7367 39.4909C32.7347 39.5728 32.7203 39.7113 32.7148 39.7631L32.5947 40.8963C32.5538 41.2796 32.8321 41.6242 33.2156 41.6644C33.2408 41.6671 33.2654 41.6685 33.2899 41.6685C33.6426 41.6685 33.9462 41.4024 33.9837 41.0436L34.1038 39.9099C34.1891 39.0981 34.1018 38.7604 33.3889 38.2262L32.0432 37.224C33.2881 34.789 33.9976 31.9788 34.0515 29.0542L35.1926 28.6318L35.7881 29.1079C36.089 29.3501 36.5296 29.2996 36.7698 28.9981C37.0105 28.6973 36.9614 28.2573 36.6598 28.0165ZM11.8546 11.0203C11.8546 7.17202 14.9859 4.04146 18.8349 4.04146C22.6838 4.04146 25.8158 7.17202 25.8158 11.0203C25.8158 11.9624 25.622 12.8704 25.2581 13.7293C23.1941 12.7693 20.9764 12.2953 18.8363 12.2953C16.6949 12.2953 14.4759 12.7698 12.411 13.7309C12.0479 12.8716 11.8546 11.9628 11.8546 11.0203ZM18.7918 39.607C18.0038 39.607 17.2781 39.3331 16.7283 38.8684C16.9172 38.1943 18.4726 32.7345 18.8349 31.1758C19.2012 32.7489 20.7394 38.1449 20.9251 38.8071C20.3672 39.3104 19.6124 39.607 18.7918 39.607ZM30.5979 37.0117C30.5968 37.0132 30.595 37.0138 30.5938 37.0153C30.5896 37.0209 30.5892 37.0278 30.5852 37.0335C29.2173 39.5143 27.2323 41.5141 24.7951 42.6652C24.3585 42.8719 23.9315 42.9122 23.6525 42.775C23.4526 42.6768 23.3182 42.4742 23.2513 42.1645C22.883 40.5668 20.5403 32.3498 20.1774 30.7821C19.9816 30.0467 19.4556 29.5705 18.8382 29.5692C18.8375 29.5692 18.8368 29.5692 18.8362 29.5692C18.2188 29.5692 17.6914 30.044 17.4868 30.804C17.128 32.356 14.8017 40.5191 14.4326 42.1032C14.2648 42.4852 14.0636 42.7233 13.8337 42.8113C13.5949 42.9034 13.2722 42.8536 12.8745 42.6653C10.4437 41.517 8.46344 39.5241 7.09614 37.0525C7.08845 37.0407 7.08713 37.0268 7.0786 37.0154C7.07616 37.0121 7.07239 37.0107 7.06994 37.0075C5.31437 33.8088 4.5843 29.8143 5.23529 25.8069C6.59282 17.4384 13.0444 13.6924 18.8362 13.6924C24.628 13.6924 31.0796 17.4384 32.4371 25.8069C33.0868 29.8161 32.3552 33.8124 30.5979 37.0117Z" fill="#327466"/>
<path d="M22.026 9.47072C22.4121 9.47072 22.7246 9.15825 22.7246 8.77215V7.88735C22.7246 7.50125 22.4121 7.18878 22.026 7.18878C21.6399 7.18878 21.3274 7.50125 21.3274 7.88735V8.77215C21.3274 9.15825 21.6399 9.47072 22.026 9.47072Z" fill="#327466"/>
<path d="M15.645 7.18878C15.2589 7.18878 14.9465 7.50125 14.9465 7.88735V8.77215C14.9465 9.15825 15.2589 9.47072 15.645 9.47072C16.0311 9.47072 16.3436 9.15825 16.3436 8.77215V7.88735C16.3436 7.50118 16.0312 7.18878 15.645 7.18878Z" fill="#327466"/>
<path d="M26.1173 29.7202C24.6363 29.7202 23.4315 30.9249 23.4315 32.406C23.4315 33.887 24.6363 35.0917 26.1173 35.0917C27.5983 35.0917 28.8031 33.887 28.8031 32.406C28.8031 30.9249 27.5983 29.7202 26.1173 29.7202ZM26.1173 33.6946C25.4064 33.6946 24.8287 33.1168 24.8287 32.406C24.8287 31.6951 25.4064 31.1173 26.1173 31.1173C26.8282 31.1173 27.4059 31.6951 27.4059 32.406C27.4059 33.1168 26.8281 33.6946 26.1173 33.6946Z" fill="#17B997"/>
<path d="M24.7116 18.8457C22.2284 18.8457 20.2077 20.8664 20.2077 23.3496C20.2077 25.8341 22.2284 27.8555 24.7116 27.8555C27.1961 27.8555 29.2175 25.8341 29.2175 23.3496C29.2175 20.8664 27.1961 18.8457 24.7116 18.8457ZM24.7116 26.4583C22.9986 26.4583 21.6048 25.0639 21.6048 23.3496C21.6048 21.6366 22.9985 20.2428 24.7116 20.2428C26.4259 20.2428 27.8203 21.6365 27.8203 23.3496C27.8203 25.0639 26.4259 26.4583 24.7116 26.4583Z" fill="#17B997"/>
<path d="M12.51 21.682C10.7705 21.682 9.35489 23.0982 9.35489 24.8391C9.35489 26.5787 10.7705 27.9936 12.51 27.9936C14.251 27.9936 15.6672 26.5787 15.6672 24.8391C15.6672 23.0982 14.2509 21.682 12.51 21.682ZM12.51 26.5965C11.5406 26.5965 10.752 25.8078 10.752 24.8391C10.752 23.8684 11.5406 23.0791 12.51 23.0791C13.4808 23.0791 14.2701 23.8684 14.2701 24.8391C14.2701 25.8078 13.4808 26.5965 12.51 26.5965Z" fill="#17B997"/>
<path d="M11.8187 30.0456C10.2729 30.0456 9.01559 31.3015 9.01559 32.846C9.01559 34.3919 10.2729 35.6491 11.8187 35.6491C13.3632 35.6491 14.6192 34.3919 14.6192 32.846C14.6192 31.3015 13.3632 30.0456 11.8187 30.0456ZM11.8187 34.252C11.0437 34.252 10.4127 33.621 10.4127 32.846C10.4127 32.0724 11.0437 31.4427 11.8187 31.4427C12.5923 31.4427 13.222 32.0724 13.222 32.846C13.222 33.621 12.5923 34.252 11.8187 34.252Z" fill="#17B997"/>
<path d="M17.6851 15.9134C16.3862 15.9134 15.3295 16.9701 15.3295 18.2697C15.3295 19.5699 16.3862 20.628 17.6851 20.628C18.9854 20.628 20.0435 19.57 20.0435 18.2697C20.0434 16.9701 18.9854 15.9134 17.6851 15.9134ZM17.6851 19.231C17.1565 19.231 16.7266 18.7998 16.7266 18.2697C16.7266 17.7411 17.1564 17.3106 17.6851 17.3106C18.2152 17.3106 18.6464 17.7411 18.6464 18.2697C18.6463 18.7998 18.2152 19.231 17.6851 19.231Z" fill="#17B997"/>
</svg>
