<svg width="37" height="44" viewBox="0 0 37 44" fill="none" xmlns="http://www.w3.org/2000/svg">
<path d="M35.7019 16.2063C32.1939 14.8257 28.6714 14.6099 25.6778 15.5316L20.8779 10.6709C21.0632 10.3151 21.178 9.91695 21.178 9.48873C21.178 8.31102 20.3795 7.32611 19.2986 7.01937V4.70278C19.2986 4.33177 18.9531 3.985 18.5775 4.00456C18.1887 4.00729 17.819 3.83642 17.5891 3.5236C17.2049 2.9966 17.3188 2.2557 17.8442 1.87163C18.0993 1.68504 18.4138 1.60966 18.7235 1.65675C19.0353 1.70481 19.3102 1.87198 19.4971 2.12709C19.7243 2.43921 20.1609 2.50676 20.4734 2.27854C20.7844 2.05067 20.852 1.61344 20.6241 1.30229C20.2176 0.745606 19.6179 0.381303 18.9371 0.275959C18.257 0.170895 17.5747 0.337014 17.0194 0.744279C15.8734 1.582 15.623 3.19814 16.4614 4.34798C16.8183 4.83544 17.3307 5.17138 17.9015 5.31773V7.01923C16.8199 7.3259 16.0206 8.31088 16.0206 9.48866C16.0206 9.91758 16.1358 10.3162 16.3218 10.6724L11.521 15.5315C8.52773 14.6094 5.00521 14.8247 1.49665 16.2066C0.332841 16.665 0.18684 17.2636 0.268712 17.6852C0.362879 18.1675 0.817856 18.5015 1.37524 18.5015C1.4196 18.5001 1.47556 18.5008 1.52669 18.5008C3.69972 18.5008 6.13318 18.9341 8.02246 19.7657C5.60765 19.4687 3.28233 20.104 2.15366 20.7292C1.76819 20.9414 1.12425 21.2965 1.22861 21.948C1.33026 22.58 2.0247 22.7103 2.32285 22.7663C6.06542 23.4608 8.35491 25.2884 9.00562 28.0676H4.86473C3.72138 28.0676 2.79152 28.9975 2.79152 30.1408V31.2044C2.79152 32.3477 3.72138 33.2776 4.86473 33.2776H5.01108L8.03629 41.0164C8.75253 42.8446 9.71376 43.5568 11.4649 43.5568H25.7357C27.4863 43.5568 28.4468 42.8446 29.1617 41.0163L32.1889 33.2775H32.4792C33.6226 33.2775 34.5524 32.3477 34.5524 31.2043V30.1407C34.5524 28.9974 33.6226 28.0675 32.4792 28.0675H28.1929C28.8455 25.2875 31.1362 23.4601 34.8798 22.7662C35.1759 22.7102 35.8697 22.5792 35.9707 21.9472C36.075 21.2957 35.4065 20.927 35.0483 20.7294C33.9179 20.1044 31.5926 19.4679 29.1771 19.7655C31.0662 18.934 33.4986 18.5007 35.6699 18.5007C35.721 18.5007 35.7769 18.5018 35.8213 18.5014C36.3814 18.5014 36.8371 18.1672 36.9313 17.6849C37.0131 17.2633 36.8664 16.6647 35.7019 16.2063ZM18.6 8.30815C19.2508 8.30815 19.7809 8.83788 19.7809 9.48866C19.7809 10.1408 19.2508 10.6713 18.6 10.6713C17.9478 10.6713 17.4178 10.1408 17.4178 9.48866C17.4178 8.83788 17.9478 8.30815 18.6 8.30815ZM17.2778 11.6919C17.6658 11.9257 18.1149 12.0684 18.6 12.0684C19.085 12.0684 19.534 11.9256 19.9219 11.6917L24.2521 16.0767C23.915 16.2325 23.5838 16.3992 23.2656 16.588C21.0195 17.9206 19.4391 19.9579 18.6001 22.5498C17.7603 19.9576 16.1792 17.9201 13.9318 16.5874C13.6138 16.3987 13.2829 16.2321 12.946 16.0765L17.2778 11.6919ZM22.4735 30.1804C23.4061 31.1129 23.4061 32.6301 22.4728 33.5634C21.573 34.4652 19.9992 34.4666 19.0939 33.5627C18.9575 33.4262 18.7787 33.358 18.6 33.358C18.4213 33.358 18.2426 33.4262 18.1061 33.5627C17.1749 34.4939 15.6577 34.4946 14.7252 33.5634C13.7947 32.6302 13.7947 31.1129 14.7252 30.1797C14.9974 29.9068 14.9974 29.4647 14.7245 29.1925C13.7933 28.2613 13.794 26.7455 14.7245 25.8129C15.6291 24.9083 17.203 24.9083 18.1061 25.8129C18.2371 25.9439 18.4145 26.0176 18.6 26.0176C18.7856 26.0176 18.9629 25.9439 19.0939 25.8129C19.5462 25.3606 20.1465 25.1123 20.7844 25.1123C20.7851 25.1123 20.7858 25.1123 20.7858 25.1123C21.4236 25.1123 22.0226 25.3613 22.4735 25.8129C22.9258 26.2652 23.1748 26.8655 23.1748 27.5048C23.1741 28.1419 22.9251 28.7416 22.4742 29.1918C22.3425 29.3228 22.2689 29.5009 22.2689 29.6857C22.2689 29.8713 22.3425 30.0494 22.4735 30.1804ZM2.97301 17.1579C6.74485 15.9184 10.4321 16.1357 13.2189 17.789C15.4102 19.0884 16.8754 21.1813 17.521 23.8817C17.167 23.7741 16.796 23.7152 16.4157 23.7152C15.6514 23.7152 14.9222 23.9412 14.3019 24.3602C13.7759 23.1783 13.0564 22.2166 12.1563 21.4737C10.7845 18.8099 6.73011 17.4375 2.97301 17.1579ZM3.60744 21.6191C4.99571 21.1392 7.45369 20.7343 9.64076 21.5929C11.3289 22.2557 12.5321 23.56 13.2344 25.4577C12.7329 26.2433 12.5506 27.1736 12.6845 28.0676H10.4384C9.81952 24.852 7.42917 22.5976 3.60744 21.6191ZM4.18865 31.2043V30.1407C4.18865 29.7683 4.49225 29.4647 4.86473 29.4647H13.1914C13.2361 29.5382 13.2704 29.6161 13.3205 29.6871C12.9059 30.2752 12.6866 30.9562 12.6459 31.6462C12.6357 31.724 12.6264 31.802 12.6267 31.8803H4.86473C4.4984 31.8804 4.18865 31.5706 4.18865 31.2043ZM27.8602 40.5074C27.3042 41.9298 26.7781 42.1597 25.7357 42.1597H11.4649C10.4212 42.1597 9.89455 41.9298 9.33786 40.5074L6.5116 33.2775H12.9112C13.0954 33.7401 13.3634 34.1765 13.7366 34.5505C15.0587 35.8712 17.1223 36.0104 18.5993 34.9674C19.2344 35.4176 19.9909 35.6605 20.7843 35.6605C21.796 35.6605 22.747 35.2661 23.4612 34.5505C23.8353 34.1766 24.1038 33.7402 24.2885 33.2775H30.6881L27.8602 40.5074ZM32.4793 29.4647C32.8518 29.4647 33.1554 29.7683 33.1554 30.1407V31.2043C33.1554 31.5768 32.8518 31.8804 32.4793 31.8804H24.5733C24.5737 31.8038 24.5643 31.7277 24.5543 31.6516C24.5144 30.9599 24.2949 30.2768 23.8788 29.6871C23.9292 29.6162 23.9671 29.5386 24.0122 29.4647H32.4793ZM33.5933 21.6191C29.772 22.5978 27.381 24.8523 26.76 28.0676H24.5284C24.5559 27.8828 24.5718 27.6951 24.5719 27.5048C24.5719 26.767 24.3573 26.0633 23.9663 25.4578C24.6685 23.5602 25.8718 22.2558 27.5599 21.5929C29.7471 20.7343 32.205 21.1392 33.5933 21.6191ZM25.0432 21.4709C24.1434 22.2151 23.4245 23.1785 22.8982 24.3613C22.2794 23.9421 21.5512 23.7152 20.7871 23.7152C20.7864 23.7152 20.7857 23.7152 20.7844 23.7152C20.4039 23.7152 20.0331 23.7741 19.6791 23.8817C20.3237 21.182 21.7881 19.0892 23.9784 17.7897C26.7645 16.1357 30.4538 15.9184 34.225 17.1579C30.4717 17.4374 26.4189 18.8088 25.0432 21.4709Z" fill="#327466"/>
<path d="M18.5997 26.9004C17.0627 26.9004 15.8123 28.1502 15.8123 29.6858C15.8123 31.2234 17.0627 32.4739 18.5997 32.4739C20.136 32.4739 21.3858 31.2234 21.3858 29.6858C21.3858 28.1502 20.136 26.9004 18.5997 26.9004ZM18.5997 31.0767C17.8329 31.0767 17.2094 30.4525 17.2094 29.6858C17.2094 28.9203 17.833 28.2975 18.5997 28.2975C19.3658 28.2975 19.9887 28.9203 19.9887 29.6858C19.9887 30.4526 19.3658 31.0767 18.5997 31.0767Z" fill="#17B997"/>
</svg>
