<svg width="45" height="38" viewBox="0 0 45 38" fill="none" xmlns="http://www.w3.org/2000/svg">
<path d="M14.6928 26.8102C12.575 26.8102 10.8517 28.5345 10.8517 30.6537C10.8517 32.7715 12.575 34.4948 14.6928 34.4948C16.812 34.4948 18.5363 32.7715 18.5363 30.6537C18.5362 28.5344 16.812 26.8102 14.6928 26.8102ZM14.6928 33.0976C13.3451 33.0976 12.2489 32.0014 12.2489 30.6537C12.2489 29.3046 13.3451 28.2073 14.6928 28.2073C16.0419 28.2073 17.1392 29.3046 17.1392 30.6537C17.1391 32.0013 16.0418 33.0976 14.6928 33.0976Z" fill="#17B997"/>
<path d="M35.0087 29.6608C33.5693 29.6608 32.398 30.8321 32.398 32.2715C32.398 33.7123 33.5693 34.8847 35.0087 34.8847C36.4481 34.8847 37.6191 33.7123 37.6191 32.2715C37.6191 30.8321 36.4481 29.6608 35.0087 29.6608ZM35.0087 33.4876C34.3395 33.4876 33.7951 32.9421 33.7951 32.2716C33.7951 31.6024 34.3395 31.058 35.0087 31.058C35.6776 31.058 36.222 31.6024 36.222 32.2716C36.222 32.9421 35.6776 33.4876 35.0087 33.4876Z" fill="#17B997"/>
<path d="M41.0371 23.5871V19.7701C41.0371 18.1942 39.7563 16.9124 38.1818 16.9124H37.6974V14.7631H38.6617C39.3718 14.7631 39.9493 14.1843 39.9493 13.4731V12.7462C39.9493 11.3355 38.6119 10.188 36.9681 10.188H24.8421C23.1984 10.188 21.8609 11.3355 21.8609 12.7462V13.4731C21.8609 14.1843 22.4384 14.7631 23.1486 14.7631H24.1865V16.9124H23.0916C21.5157 16.9124 20.2339 18.1943 20.2339 19.7701V20.8111L15.3598 20.164L9.93695 4.82481C10.6911 4.3683 11.2013 3.5479 11.2013 2.60372C11.2013 1.16803 10.0334 9.15527e-05 8.59766 9.15527e-05H3.60032C2.16462 0.000161409 0.996689 1.16803 0.996689 2.60372C0.996689 4.03942 2.16462 5.20735 3.60032 5.20735H5.5373L10.7325 19.8691C10.3677 19.9982 10.038 20.1968 9.76398 20.4622C9.19982 21.0087 8.90167 21.7771 8.90167 22.6848V27.326C8.33548 28.3074 8.00632 29.4418 8.00632 30.6539C8.00632 34.3398 11.0059 37.3384 14.6929 37.3384C17.5117 37.3384 19.9235 35.583 20.9055 33.1105H29.8926C30.2953 35.5753 32.4329 37.4642 35.0087 37.4642C37.5857 37.4642 39.7241 35.5753 40.1271 33.1105H40.6142C42.6508 33.1104 44.3078 31.5898 44.3078 29.7206V27.4281C44.3078 25.9329 43.7247 24.0875 41.0371 23.5871ZM23.2581 13.3661V12.7463C23.2581 12.1169 23.9836 11.5852 24.8421 11.5852H36.9681C37.8267 11.5852 38.5522 12.1169 38.5522 12.7463V13.3661H23.2581ZM36.3002 14.7632V16.9125H25.5837V14.7632H36.3002ZM21.631 19.7701C21.631 18.9648 22.2863 18.3095 23.0916 18.3095H38.1818C38.9857 18.3095 39.6399 18.9648 39.6399 19.7701V23.3874L37.2671 23.0724L37.2652 20.3971C37.2649 20.0113 36.9521 19.6988 36.5667 19.6988H36.5663C36.1802 19.6992 35.8678 20.0119 35.8681 20.3978L35.8699 22.887L31.6027 22.3205V20.3974C31.6027 20.0117 31.2899 19.6988 30.9042 19.6988C30.5184 19.6988 30.2056 20.0117 30.2056 20.3974V22.135L26.3178 21.6189V20.4639C26.3178 20.0782 26.005 19.7653 25.6192 19.7653C25.2335 19.7653 24.9207 20.0782 24.9207 20.4639V21.4334L21.6311 20.9966V19.7701H21.631ZM2.39382 2.60372C2.39382 1.93861 2.93514 1.3973 3.60032 1.3973H8.59773C9.26283 1.3973 9.80422 1.93862 9.80422 2.60379C9.80422 3.26897 9.2629 3.81029 8.59773 3.81029H3.60032C2.93514 3.81022 2.39382 3.2689 2.39382 2.60372ZM7.01924 5.20735H8.59011L13.8048 19.9577L12.1689 19.7405L7.01924 5.20735ZM14.6928 35.9412C11.7761 35.9412 9.40338 33.5692 9.40338 30.6539C9.40338 27.7372 11.7761 25.3645 14.6928 25.3645C17.6095 25.3645 19.9822 27.7372 19.9822 30.6539C19.9821 33.5692 17.6095 35.9412 14.6928 35.9412ZM35.0085 36.067C32.9169 36.067 31.2155 34.3643 31.2155 32.2717C31.2155 30.1801 32.9169 28.4783 35.0085 28.4783C37.1011 28.4783 38.8039 30.18 38.8039 32.2717C38.8039 34.3643 37.1011 36.067 35.0085 36.067ZM42.9107 29.7206C42.9107 30.8193 41.8806 31.7133 40.6141 31.7133H40.1698C39.8902 29.1129 37.6828 27.0812 35.0085 27.0812C32.3355 27.0812 30.1292 29.1129 29.8496 31.7133H21.287C21.3425 31.3674 21.3793 31.0152 21.3793 30.6538C21.3793 26.9669 18.3797 23.9673 14.6927 23.9673C13.0102 23.9673 11.4752 24.5968 10.2987 25.6263V22.6848C10.2987 22.1643 10.4498 21.7427 10.736 21.4661C10.978 21.2318 11.3109 21.11 11.6487 21.0964C11.653 21.0965 11.6571 21.0984 11.6614 21.0984C11.6704 21.0984 11.6796 21.094 11.6887 21.0936C11.707 21.0933 11.725 21.0894 11.7433 21.0898L40.5203 24.9135C42.1736 25.138 42.9107 25.9133 42.9107 27.4281V29.7206Z" fill="#327466"/>
</svg>
