<svg width="35" height="35" viewBox="0 0 35 35" fill="none" xmlns="http://www.w3.org/2000/svg">
<g filter="url(#filter0_d_1_125)">
<circle cx="17.468" cy="14.0006" r="13.5021" fill="white"/>
</g>
<mask id="path-2-outside-1_1_125" maskUnits="userSpaceOnUse" x="8.96713" y="6.24911" width="17" height="15" fill="black">
<rect fill="white" x="8.96713" y="6.24911" width="17" height="15"/>
<path d="M24.8103 15.1665H23.9029C23.5105 15.1665 23.1785 15.4177 23.0513 15.7667L21.5391 15.456C21.4628 15.4064 21.3911 15.3594 21.3226 15.3143C21.3364 14.9575 21.228 14.6114 21.0092 14.3253C20.7772 14.0217 20.441 13.8092 20.0474 13.7132C20.0268 13.381 19.8705 13.0619 19.6053 12.8272C19.3138 12.5672 18.915 12.4312 18.5188 12.4439C18.1144 12.0307 17.5598 11.7746 16.9552 11.7183V10.5408L17.4455 10.0504C17.4774 10.0215 18.9915 8.68867 20.9022 9.4332C20.9059 9.4347 20.9096 9.43592 20.9133 9.43716C21.1066 9.50291 21.2304 9.41186 21.2744 9.37016C21.4131 9.2384 21.4267 9.02056 21.32 8.64143C21.1364 7.99434 20.3705 7.14033 19.2373 7.26066C17.7853 7.41895 17.4211 8.56897 17.1549 9.40886C17.1201 9.51877 17.0857 9.62428 17.0503 9.72706L16.701 10.0763L16.3517 9.72701C16.3167 9.62482 16.2825 9.51991 16.248 9.41061C15.982 8.57024 15.618 7.41897 14.1655 7.26068C13.0339 7.13959 12.2655 7.99437 12.0826 8.6422C11.9762 9.02059 11.9898 9.23843 12.1285 9.37016C12.1724 9.41186 12.296 9.50291 12.4895 9.43716C12.4932 9.43592 12.497 9.43467 12.5007 9.4332C14.4048 8.691 15.8831 9.9843 15.9565 10.0504L16.447 10.5408V11.7183C15.8426 11.7746 15.2885 12.0307 14.8841 12.4438C14.4802 12.4322 14.0889 12.5674 13.7973 12.8264C13.5314 13.0619 13.3748 13.3825 13.3549 13.7162C12.89 13.8411 12.4558 14.1708 12.2827 14.6574L11.6561 14.2479C11.1177 13.9154 10.4805 14.1616 10.1756 14.5925C9.87712 15.0146 9.80666 15.7309 10.5984 16.3673L13.6294 18.6016C14.3881 19.1259 15.1099 19.2219 16.2577 19.2219C16.2577 19.2219 20.4136 19.2204 20.537 19.2189C21.312 19.2087 21.9898 19.206 23.0101 19.5819C23.0874 20.0051 23.4573 20.3275 23.9029 20.3275H24.6119C24.6317 20.3329 24.6511 20.3407 24.6713 20.3407C24.6981 20.3407 24.7248 20.3358 24.7508 20.3275H24.8103C25.3117 20.3275 25.7196 19.9199 25.7196 19.4189V16.0758C25.7196 15.5744 25.3117 15.1665 24.8103 15.1665ZM19.2924 7.76588C19.3472 7.75993 19.4009 7.75694 19.4529 7.75694C20.2628 7.75694 20.7355 8.44298 20.831 8.77968C20.8414 8.81639 20.8496 8.84914 20.8563 8.87792C19.5316 8.45167 18.4118 8.85585 17.7479 9.22826C17.9888 8.52215 18.3215 7.8716 19.2924 7.76588ZM13.6932 8.69535C13.3349 8.69535 12.9501 8.74794 12.5466 8.87798C12.5533 8.84919 12.5615 8.81669 12.5717 8.77998C12.6731 8.42121 13.1987 7.66768 14.1105 7.76593C15.0809 7.87162 15.4138 8.5222 15.6545 9.22857C15.1933 8.96952 14.5112 8.69535 13.6932 8.69535ZM13.6473 14.1755C13.715 14.1673 13.7763 14.1321 13.818 14.078C13.8594 14.0239 13.8773 13.9552 13.8679 13.8877C13.8321 13.6366 13.9294 13.3885 14.1346 13.2066C14.3507 13.0145 14.6519 12.923 14.9598 12.9585C15.0419 12.9674 15.1243 12.9359 15.1792 12.8731C15.5454 12.4545 16.1002 12.2144 16.7011 12.2144C17.3025 12.2144 17.8576 12.4545 18.2238 12.8731C18.2786 12.9359 18.3608 12.9674 18.4431 12.9585C18.7508 12.9227 19.052 13.0145 19.2679 13.2068C19.4733 13.3889 19.5706 13.6371 19.5343 13.8871C19.5247 13.9546 19.5425 14.0234 19.5842 14.0777C19.6257 14.132 19.6872 14.1673 19.7549 14.1755C20.111 14.2191 20.4129 14.3819 20.6055 14.634C20.6836 14.7361 20.7382 14.8505 20.7731 14.9706C20.308 14.7107 19.8383 14.5707 18.8888 14.5707H17.1609C16.3714 14.5707 15.9456 15.1898 15.9456 15.7721C15.9456 16.0048 16.0099 16.2247 16.1297 16.408C15.0817 16.4023 14.9358 16.371 14.6566 16.2085L12.7284 14.9486C12.8144 14.5056 13.236 14.226 13.6473 14.1755ZM20.531 18.7108C20.4097 18.7123 16.2577 18.7138 16.2577 18.7138C15.1925 18.7138 14.5708 18.6344 13.9247 18.1883L10.9086 15.9649C10.4769 15.618 10.358 15.2146 10.5905 14.8861C10.7599 14.6469 11.1046 14.5037 11.3835 14.6767L14.3896 16.6405C14.8645 16.9179 15.0893 16.9179 16.9035 16.9172H18.0992C18.2396 16.9172 18.3533 16.8035 18.3533 16.6631C18.3533 16.5227 18.2396 16.409 18.0992 16.409H17.1608C16.9298 16.409 16.7425 16.3406 16.6192 16.211C16.5125 16.0991 16.4537 15.9431 16.4537 15.7721C16.4537 15.4381 16.675 15.0789 17.1608 15.0789H18.8887C19.7319 15.0789 20.1251 15.1891 20.544 15.4249C20.6971 15.5111 21.2086 15.8476 21.3039 15.9088C21.3302 15.9257 21.3595 15.9379 21.3902 15.9441L22.9936 16.2736V19.0367C21.9875 18.6969 21.2761 18.7026 20.531 18.7108ZM25.2115 19.4189C25.2115 19.6398 25.0316 19.8194 24.8103 19.8194H24.6508C24.6506 19.8194 24.6505 19.8194 24.6504 19.8194H23.9029C23.6816 19.8194 23.5017 19.6398 23.5017 19.4189V16.0758C23.5017 15.8545 23.6816 15.6746 23.9029 15.6746H24.8103C25.0316 15.6746 25.2115 15.8545 25.2115 16.0758V19.4189Z"/>
</mask>
<path d="M24.8103 15.1665H23.9029C23.5105 15.1665 23.1785 15.4177 23.0513 15.7667L21.5391 15.456C21.4628 15.4064 21.3911 15.3594 21.3226 15.3143C21.3364 14.9575 21.228 14.6114 21.0092 14.3253C20.7772 14.0217 20.441 13.8092 20.0474 13.7132C20.0268 13.381 19.8705 13.0619 19.6053 12.8272C19.3138 12.5672 18.915 12.4312 18.5188 12.4439C18.1144 12.0307 17.5598 11.7746 16.9552 11.7183V10.5408L17.4455 10.0504C17.4774 10.0215 18.9915 8.68867 20.9022 9.4332C20.9059 9.4347 20.9096 9.43592 20.9133 9.43716C21.1066 9.50291 21.2304 9.41186 21.2744 9.37016C21.4131 9.2384 21.4267 9.02056 21.32 8.64143C21.1364 7.99434 20.3705 7.14033 19.2373 7.26066C17.7853 7.41895 17.4211 8.56897 17.1549 9.40886C17.1201 9.51877 17.0857 9.62428 17.0503 9.72706L16.701 10.0763L16.3517 9.72701C16.3167 9.62482 16.2825 9.51991 16.248 9.41061C15.982 8.57024 15.618 7.41897 14.1655 7.26068C13.0339 7.13959 12.2655 7.99437 12.0826 8.6422C11.9762 9.02059 11.9898 9.23843 12.1285 9.37016C12.1724 9.41186 12.296 9.50291 12.4895 9.43716C12.4932 9.43592 12.497 9.43467 12.5007 9.4332C14.4048 8.691 15.8831 9.9843 15.9565 10.0504L16.447 10.5408V11.7183C15.8426 11.7746 15.2885 12.0307 14.8841 12.4438C14.4802 12.4322 14.0889 12.5674 13.7973 12.8264C13.5314 13.0619 13.3748 13.3825 13.3549 13.7162C12.89 13.8411 12.4558 14.1708 12.2827 14.6574L11.6561 14.2479C11.1177 13.9154 10.4805 14.1616 10.1756 14.5925C9.87712 15.0146 9.80666 15.7309 10.5984 16.3673L13.6294 18.6016C14.3881 19.1259 15.1099 19.2219 16.2577 19.2219C16.2577 19.2219 20.4136 19.2204 20.537 19.2189C21.312 19.2087 21.9898 19.206 23.0101 19.5819C23.0874 20.0051 23.4573 20.3275 23.9029 20.3275H24.6119C24.6317 20.3329 24.6511 20.3407 24.6713 20.3407C24.6981 20.3407 24.7248 20.3358 24.7508 20.3275H24.8103C25.3117 20.3275 25.7196 19.9199 25.7196 19.4189V16.0758C25.7196 15.5744 25.3117 15.1665 24.8103 15.1665ZM19.2924 7.76588C19.3472 7.75993 19.4009 7.75694 19.4529 7.75694C20.2628 7.75694 20.7355 8.44298 20.831 8.77968C20.8414 8.81639 20.8496 8.84914 20.8563 8.87792C19.5316 8.45167 18.4118 8.85585 17.7479 9.22826C17.9888 8.52215 18.3215 7.8716 19.2924 7.76588ZM13.6932 8.69535C13.3349 8.69535 12.9501 8.74794 12.5466 8.87798C12.5533 8.84919 12.5615 8.81669 12.5717 8.77998C12.6731 8.42121 13.1987 7.66768 14.1105 7.76593C15.0809 7.87162 15.4138 8.5222 15.6545 9.22857C15.1933 8.96952 14.5112 8.69535 13.6932 8.69535ZM13.6473 14.1755C13.715 14.1673 13.7763 14.1321 13.818 14.078C13.8594 14.0239 13.8773 13.9552 13.8679 13.8877C13.8321 13.6366 13.9294 13.3885 14.1346 13.2066C14.3507 13.0145 14.6519 12.923 14.9598 12.9585C15.0419 12.9674 15.1243 12.9359 15.1792 12.8731C15.5454 12.4545 16.1002 12.2144 16.7011 12.2144C17.3025 12.2144 17.8576 12.4545 18.2238 12.8731C18.2786 12.9359 18.3608 12.9674 18.4431 12.9585C18.7508 12.9227 19.052 13.0145 19.2679 13.2068C19.4733 13.3889 19.5706 13.6371 19.5343 13.8871C19.5247 13.9546 19.5425 14.0234 19.5842 14.0777C19.6257 14.132 19.6872 14.1673 19.7549 14.1755C20.111 14.2191 20.4129 14.3819 20.6055 14.634C20.6836 14.7361 20.7382 14.8505 20.7731 14.9706C20.308 14.7107 19.8383 14.5707 18.8888 14.5707H17.1609C16.3714 14.5707 15.9456 15.1898 15.9456 15.7721C15.9456 16.0048 16.0099 16.2247 16.1297 16.408C15.0817 16.4023 14.9358 16.371 14.6566 16.2085L12.7284 14.9486C12.8144 14.5056 13.236 14.226 13.6473 14.1755ZM20.531 18.7108C20.4097 18.7123 16.2577 18.7138 16.2577 18.7138C15.1925 18.7138 14.5708 18.6344 13.9247 18.1883L10.9086 15.9649C10.4769 15.618 10.358 15.2146 10.5905 14.8861C10.7599 14.6469 11.1046 14.5037 11.3835 14.6767L14.3896 16.6405C14.8645 16.9179 15.0893 16.9179 16.9035 16.9172H18.0992C18.2396 16.9172 18.3533 16.8035 18.3533 16.6631C18.3533 16.5227 18.2396 16.409 18.0992 16.409H17.1608C16.9298 16.409 16.7425 16.3406 16.6192 16.211C16.5125 16.0991 16.4537 15.9431 16.4537 15.7721C16.4537 15.4381 16.675 15.0789 17.1608 15.0789H18.8887C19.7319 15.0789 20.1251 15.1891 20.544 15.4249C20.6971 15.5111 21.2086 15.8476 21.3039 15.9088C21.3302 15.9257 21.3595 15.9379 21.3902 15.9441L22.9936 16.2736V19.0367C21.9875 18.6969 21.2761 18.7026 20.531 18.7108ZM25.2115 19.4189C25.2115 19.6398 25.0316 19.8194 24.8103 19.8194H24.6508C24.6506 19.8194 24.6505 19.8194 24.6504 19.8194H23.9029C23.6816 19.8194 23.5017 19.6398 23.5017 19.4189V16.0758C23.5017 15.8545 23.6816 15.6746 23.9029 15.6746H24.8103C25.0316 15.6746 25.2115 15.8545 25.2115 16.0758V19.4189Z" fill="#17B997"/>
<path d="M24.8103 15.1665H23.9029C23.5105 15.1665 23.1785 15.4177 23.0513 15.7667L21.5391 15.456C21.4628 15.4064 21.3911 15.3594 21.3226 15.3143C21.3364 14.9575 21.228 14.6114 21.0092 14.3253C20.7772 14.0217 20.441 13.8092 20.0474 13.7132C20.0268 13.381 19.8705 13.0619 19.6053 12.8272C19.3138 12.5672 18.915 12.4312 18.5188 12.4439C18.1144 12.0307 17.5598 11.7746 16.9552 11.7183V10.5408L17.4455 10.0504C17.4774 10.0215 18.9915 8.68867 20.9022 9.4332C20.9059 9.4347 20.9096 9.43592 20.9133 9.43716C21.1066 9.50291 21.2304 9.41186 21.2744 9.37016C21.4131 9.2384 21.4267 9.02056 21.32 8.64143C21.1364 7.99434 20.3705 7.14033 19.2373 7.26066C17.7853 7.41895 17.4211 8.56897 17.1549 9.40886C17.1201 9.51877 17.0857 9.62428 17.0503 9.72706L16.701 10.0763L16.3517 9.72701C16.3167 9.62482 16.2825 9.51991 16.248 9.41061C15.982 8.57024 15.618 7.41897 14.1655 7.26068C13.0339 7.13959 12.2655 7.99437 12.0826 8.6422C11.9762 9.02059 11.9898 9.23843 12.1285 9.37016C12.1724 9.41186 12.296 9.50291 12.4895 9.43716C12.4932 9.43592 12.497 9.43467 12.5007 9.4332C14.4048 8.691 15.8831 9.9843 15.9565 10.0504L16.447 10.5408V11.7183C15.8426 11.7746 15.2885 12.0307 14.8841 12.4438C14.4802 12.4322 14.0889 12.5674 13.7973 12.8264C13.5314 13.0619 13.3748 13.3825 13.3549 13.7162C12.89 13.8411 12.4558 14.1708 12.2827 14.6574L11.6561 14.2479C11.1177 13.9154 10.4805 14.1616 10.1756 14.5925C9.87712 15.0146 9.80666 15.7309 10.5984 16.3673L13.6294 18.6016C14.3881 19.1259 15.1099 19.2219 16.2577 19.2219C16.2577 19.2219 20.4136 19.2204 20.537 19.2189C21.312 19.2087 21.9898 19.206 23.0101 19.5819C23.0874 20.0051 23.4573 20.3275 23.9029 20.3275H24.6119C24.6317 20.3329 24.6511 20.3407 24.6713 20.3407C24.6981 20.3407 24.7248 20.3358 24.7508 20.3275H24.8103C25.3117 20.3275 25.7196 19.9199 25.7196 19.4189V16.0758C25.7196 15.5744 25.3117 15.1665 24.8103 15.1665ZM19.2924 7.76588C19.3472 7.75993 19.4009 7.75694 19.4529 7.75694C20.2628 7.75694 20.7355 8.44298 20.831 8.77968C20.8414 8.81639 20.8496 8.84914 20.8563 8.87792C19.5316 8.45167 18.4118 8.85585 17.7479 9.22826C17.9888 8.52215 18.3215 7.8716 19.2924 7.76588ZM13.6932 8.69535C13.3349 8.69535 12.9501 8.74794 12.5466 8.87798C12.5533 8.84919 12.5615 8.81669 12.5717 8.77998C12.6731 8.42121 13.1987 7.66768 14.1105 7.76593C15.0809 7.87162 15.4138 8.5222 15.6545 9.22857C15.1933 8.96952 14.5112 8.69535 13.6932 8.69535ZM13.6473 14.1755C13.715 14.1673 13.7763 14.1321 13.818 14.078C13.8594 14.0239 13.8773 13.9552 13.8679 13.8877C13.8321 13.6366 13.9294 13.3885 14.1346 13.2066C14.3507 13.0145 14.6519 12.923 14.9598 12.9585C15.0419 12.9674 15.1243 12.9359 15.1792 12.8731C15.5454 12.4545 16.1002 12.2144 16.7011 12.2144C17.3025 12.2144 17.8576 12.4545 18.2238 12.8731C18.2786 12.9359 18.3608 12.9674 18.4431 12.9585C18.7508 12.9227 19.052 13.0145 19.2679 13.2068C19.4733 13.3889 19.5706 13.6371 19.5343 13.8871C19.5247 13.9546 19.5425 14.0234 19.5842 14.0777C19.6257 14.132 19.6872 14.1673 19.7549 14.1755C20.111 14.2191 20.4129 14.3819 20.6055 14.634C20.6836 14.7361 20.7382 14.8505 20.7731 14.9706C20.308 14.7107 19.8383 14.5707 18.8888 14.5707H17.1609C16.3714 14.5707 15.9456 15.1898 15.9456 15.7721C15.9456 16.0048 16.0099 16.2247 16.1297 16.408C15.0817 16.4023 14.9358 16.371 14.6566 16.2085L12.7284 14.9486C12.8144 14.5056 13.236 14.226 13.6473 14.1755ZM20.531 18.7108C20.4097 18.7123 16.2577 18.7138 16.2577 18.7138C15.1925 18.7138 14.5708 18.6344 13.9247 18.1883L10.9086 15.9649C10.4769 15.618 10.358 15.2146 10.5905 14.8861C10.7599 14.6469 11.1046 14.5037 11.3835 14.6767L14.3896 16.6405C14.8645 16.9179 15.0893 16.9179 16.9035 16.9172H18.0992C18.2396 16.9172 18.3533 16.8035 18.3533 16.6631C18.3533 16.5227 18.2396 16.409 18.0992 16.409H17.1608C16.9298 16.409 16.7425 16.3406 16.6192 16.211C16.5125 16.0991 16.4537 15.9431 16.4537 15.7721C16.4537 15.4381 16.675 15.0789 17.1608 15.0789H18.8887C19.7319 15.0789 20.1251 15.1891 20.544 15.4249C20.6971 15.5111 21.2086 15.8476 21.3039 15.9088C21.3302 15.9257 21.3595 15.9379 21.3902 15.9441L22.9936 16.2736V19.0367C21.9875 18.6969 21.2761 18.7026 20.531 18.7108ZM25.2115 19.4189C25.2115 19.6398 25.0316 19.8194 24.8103 19.8194H24.6508C24.6506 19.8194 24.6505 19.8194 24.6504 19.8194H23.9029C23.6816 19.8194 23.5017 19.6398 23.5017 19.4189V16.0758C23.5017 15.8545 23.6816 15.6746 23.9029 15.6746H24.8103C25.0316 15.6746 25.2115 15.8545 25.2115 16.0758V19.4189Z" stroke="#17B997" stroke-width="0.360057" mask="url(#path-2-outside-1_1_125)"/>
<defs>
<filter id="filter0_d_1_125" x="0.365279" y="0.498474" width="34.2054" height="34.2054" filterUnits="userSpaceOnUse" color-interpolation-filters="sRGB">
<feFlood flood-opacity="0" result="BackgroundImageFix"/>
<feColorMatrix in="SourceAlpha" type="matrix" values="0 0 0 0 0 0 0 0 0 0 0 0 0 0 0 0 0 0 127 0" result="hardAlpha"/>
<feOffset dy="3.60057"/>
<feGaussianBlur stdDeviation="1.80029"/>
<feColorMatrix type="matrix" values="0 0 0 0 0.0901961 0 0 0 0 0.72549 0 0 0 0 0.592157 0 0 0 0.04 0"/>
<feBlend mode="normal" in2="BackgroundImageFix" result="effect1_dropShadow_1_125"/>
<feBlend mode="normal" in="SourceGraphic" in2="effect1_dropShadow_1_125" result="shape"/>
</filter>
</defs>
</svg>
